<?xml version="1.0" encoding="UTF-8"?>
<svg width="96px" height="692px" viewBox="0 0 96 692" version="1.1" xmlns="http://www.w3.org/2000/svg" xmlns:xlink="http://www.w3.org/1999/xlink">
    <!-- Generator: Sketch 44.1 (41455) - http://www.bohemiancoding.com/sketch -->
    <title>Group@2x</title>
    <desc>Created with Sketch.</desc>
    <defs>
        <polygon id="path-1" points="27.83942 31.9816514 0.316486667 31.9816514 0.316486667 0.520954128 27.83942 0.520954128 27.83942 31.9816514"></polygon>
        <polygon id="path-3" points="0.32031777 0.152201835 27.5196467 0.152201835 27.5196467 37.3636239 0.32031777 37.3636239 0.32031777 0.152201835"></polygon>
        <polygon id="path-5" points="27.6812733 31.9816514 0.15834 31.9816514 0.15834 0.520954128 27.6812733 0.520954128"></polygon>
    </defs>
    <g id="Page-1" stroke="none" stroke-width="1" fill="none" fill-rule="evenodd">
        <g id="Group">
            <g id="Page-1" fill="#000000">
                <path d="M48.8770894,57.8497997 C49.6965058,57.8497997 50.3576487,57.1866533 50.3576487,56.3692403 L50.3576487,35.6333962 L54.80133,35.6333962 C58.8843881,35.6333962 62.20613,32.3116542 62.20613,28.2285962 C62.20613,24.1455382 58.8843881,20.8217927 54.80133,20.8217927 C50.718272,20.8217927 47.39653,24.1455382 47.39653,28.2285962 L47.39653,32.6722776 L41.4702859,32.6722776 L41.4702859,28.2285962 C41.4702859,24.1455382 38.1485439,20.8217927 34.0654859,20.8217927 C29.9824279,20.8217927 26.6606859,24.1455382 26.6606859,28.2285962 C26.6606859,32.3116542 29.9824279,35.6333962 34.0654859,35.6333962 L38.5091673,35.6333962 L38.5091673,56.3692403 C38.5091673,57.1866533 39.1723136,57.8497997 39.9897266,57.8497997 C40.8071396,57.8497997 41.4702859,57.1866533 41.4702859,56.3692403 L41.4702859,35.6333962 L47.39653,35.6333962 L47.39653,56.3692403 C47.39653,57.1866533 48.0576729,57.8497997 48.8770894,57.8497997 L48.8770894,57.8497997 Z M50.3576487,28.2285962 C50.3576487,25.7783607 52.3510945,23.7849148 54.80133,23.7849148 C57.2515655,23.7849148 59.2450114,25.7783607 59.2450114,28.2285962 C59.2450114,30.6768282 57.2515655,32.6722776 54.80133,32.6722776 L50.3576487,32.6722776 L50.3576487,28.2285962 Z M38.5091673,32.6722776 L34.0654859,32.6722776 C31.6152504,32.6722776 29.6218045,30.6768282 29.6218045,28.2285962 C29.6218045,25.7783607 31.6152504,23.7849148 34.0654859,23.7849148 C36.5157214,23.7849148 38.5091673,25.7783607 38.5091673,28.2285962 L38.5091673,32.6722776 Z" id="Fill-1"></path>
                <path d="M10.5750802,3.2369955 L16.244881,7.99522061 C16.5233624,8.2296258 16.8619477,8.34181974 17.1985295,8.34181974 C17.6192568,8.34181974 18.0399841,8.16351152 18.3304862,7.81290545 C18.8573971,7.18782494 18.7772585,6.25220762 18.1501745,5.72730026 L12.4803737,0.967071688 C11.8532897,0.444167792 10.9196758,0.52430632 10.392765,1.14938684 C9.86785766,1.77847429 9.94799619,2.71208814 10.5750802,3.2369955" id="Fill-3"></path>
                <path d="M11.533537,16.1613366 L4.57550926,13.6289591 C3.80818286,13.3524812 2.95871446,13.7471635 2.67822961,14.5144899 C2.39974823,15.2838197 2.79443048,16.1352916 3.56376035,16.413773 L10.5197846,18.9461505 C10.6880755,19.0062544 10.8583699,19.0363063 11.0266608,19.0363063 C11.6317067,19.0363063 12.1986868,18.6616587 12.4190677,18.0606197 C12.6995526,17.2912899 12.3028668,16.4418215 11.533537,16.1613366" id="Fill-5"></path>
                <path d="M71.6654816,8.34242078 C72.0000599,8.34242078 72.3366417,8.22822338 72.6151231,7.99582165 L78.2869274,3.23358961 C78.9140114,2.70868225 78.9961534,1.7750684 78.4692426,1.14798442 C77.9483422,0.522903896 77.0147283,0.438758442 76.3836374,0.965669264 L70.7118331,5.7279013 C70.0847491,6.25280866 70.0026071,7.18642251 70.5295179,7.81350649 C70.8220235,8.16210909 71.2407474,8.34242078 71.6654816,8.34242078" id="Fill-7"></path>
                <path d="M8.88335584,28.2305997 L1.48055931,28.2305997 C0.66314632,28.2305997 0,28.893746 0,29.711159 C0,30.5285719 0.66314632,31.1917183 1.48055931,31.1917183 L8.88335584,31.1917183 C9.70076883,31.1917183 10.3639152,30.5285719 10.3639152,29.711159 C10.3639152,28.893746 9.70076883,28.2305997 8.88335584,28.2305997" id="Fill-9"></path>
                <path d="M86.1857815,14.511084 C85.9073001,13.7437576 85.0558282,13.3450684 84.2885018,13.6275567 L77.3304741,16.1599342 C76.5611442,16.440419 76.1644585,17.2898874 76.4449434,18.0592173 C76.6633209,18.6602563 77.230301,19.0329004 77.8373503,19.0329004 C78.0036377,19.0329004 78.1759356,19.0048519 78.342223,18.9427446 L85.3022542,16.4103671 C86.0715841,16.1298823 86.4662663,15.2804139 86.1857815,14.511084" id="Fill-11"></path>
                <path d="M44.4338087,0.0867499567 C28.0995732,0.0867499567 14.8106017,13.3757214 14.8106017,29.7099569 C14.8106017,42.2095638 19.7130762,51.535685 30.2432788,59.0566859 C30.2933654,59.0907448 30.3674935,59.134821 30.421587,59.1648729 C30.4997221,59.2069456 32.0924753,60.0964833 32.493168,62.5948019 C30.8222797,63.2319032 29.6222052,64.8426876 29.6222052,66.7359603 C29.6222052,67.8739274 30.0509463,68.9137248 30.7561654,69.6990824 C30.0509463,70.48444 29.6222052,71.5242374 29.6222052,72.6622045 C29.6222052,73.7981681 30.0509463,74.8379655 30.7561654,75.6233231 C30.0509463,76.4106842 29.6222052,77.4484781 29.6222052,78.5864452 C29.6222052,81.0366807 31.6156511,83.0301266 34.0658866,83.0301266 C34.8832996,83.0301266 35.5464459,82.3649768 35.5464459,81.5495673 C35.5464459,80.7301508 34.8832996,80.0670045 34.0658866,80.0670045 C33.2504771,80.0670045 32.5853273,79.4018547 32.5853273,78.5864452 C32.5853273,77.7710357 33.2504771,77.1058859 34.0658866,77.1058859 L48.87749,77.1058859 C49.6969065,77.1058859 50.3580494,76.4407361 50.3580494,75.6253266 C50.3580494,74.8059101 49.6969065,74.1427638 48.87749,74.1427638 L34.0658866,74.1427638 C33.2504771,74.1427638 32.5853273,73.477614 32.5853273,72.6622045 C32.5853273,71.8447915 33.2504771,71.1816452 34.0658866,71.1816452 L48.87749,71.1816452 C49.6969065,71.1816452 50.3580494,70.5184989 50.3580494,69.6990824 C50.3580494,68.8836729 49.6969065,68.2185231 48.87749,68.2185231 L34.0658866,68.2185231 C33.2504771,68.2185231 32.5853273,67.5533733 32.5853273,66.7379638 C32.5853273,65.9205508 33.2504771,65.2574045 34.0658866,65.2574045 L48.87749,65.2574045 C49.6969065,65.2574045 50.3580494,64.5942582 50.3580494,63.7748417 C50.3580494,62.9574287 49.6969065,62.2942824 48.87749,62.2942824 L35.4462727,62.2942824 C34.9213654,58.5658374 32.5051887,56.9490426 31.8981394,56.60044 C22.1292528,49.5983361 17.7737238,41.301995 17.7737238,29.7099569 C17.7737238,15.0085439 29.7343991,3.04987203 44.4338087,3.04987203 C59.1332182,3.04987203 71.0938935,15.0085439 71.0938935,29.7099569 C71.0938935,41.301995 66.7383645,49.5983361 56.9674745,56.60044 C56.286297,56.9931188 53.3211714,58.9845612 53.3211714,63.7748417 C53.3211714,64.5942582 53.9823143,65.2574045 54.8017307,65.2574045 C55.6191437,65.2574045 56.28229,65.9205508 56.28229,66.7379638 C56.28229,67.5533733 55.6191437,68.2185231 54.8017307,68.2185231 C53.9823143,68.2185231 53.3211714,68.8836729 53.3211714,69.6990824 C53.3211714,70.5184989 53.9823143,71.1816452 54.8017307,71.1816452 C55.6191437,71.1816452 56.28229,71.8447915 56.28229,72.6622045 C56.28229,73.477614 55.6191437,74.1427638 54.8017307,74.1427638 C53.9823143,74.1427638 53.3211714,74.8059101 53.3211714,75.6253266 C53.3211714,76.4407361 53.9823143,77.1058859 54.8017307,77.1058859 C55.6191437,77.1058859 56.28229,77.7710357 56.28229,78.5864452 C56.28229,79.4299032 55.6451887,80.0670045 54.8017307,80.0670045 L39.9901273,80.0670045 C39.1727143,80.0670045 38.509568,80.7301508 38.509568,81.5495673 L38.509568,84.5106859 C38.509568,86.9589179 40.5030139,88.9543673 42.9532494,88.9543673 L45.914368,88.9543673 C48.3646035,88.9543673 50.3580494,86.9589179 50.3580494,84.5106859 L50.3580494,83.0301266 L54.8017307,83.0301266 C57.294039,83.0301266 59.2454121,81.07675 59.2454121,78.5864452 C59.2454121,77.4484781 58.8146675,76.4106842 58.1094485,75.6233231 C58.8146675,74.8379655 59.2454121,73.7981681 59.2454121,72.6622045 C59.2454121,71.5242374 58.8146675,70.48444 58.1094485,69.6990824 C58.8146675,68.9117214 59.2454121,67.8739274 59.2454121,66.7359603 C59.2454121,64.8426876 58.0453377,63.2319032 56.3724459,62.5948019 C56.7731385,60.0964833 58.3658918,59.2089491 58.4259957,59.1748902 C58.4961169,59.1408313 58.5622312,59.1007621 58.6243385,59.0566859 C69.1525377,51.5336816 74.0550121,42.2095638 74.0550121,29.7079534 C74.0550121,13.3757214 60.7680442,0.0867499567 44.4338087,0.0867499567 L44.4338087,0.0867499567 Z M47.3949273,84.5106859 C47.3949273,85.3260954 46.731781,85.9912452 45.914368,85.9912452 L42.9532494,85.9912452 C42.1358364,85.9912452 41.4706866,85.3260954 41.4706866,84.5106859 L41.4706866,83.0301266 L47.3949273,83.0301266 L47.3949273,84.5106859 Z" id="Fill-13"></path>
                <path d="M87.3858559,28.2279952 L79.9810559,28.2279952 C79.1616395,28.2279952 78.4984932,28.8911415 78.4984932,29.7085545 C78.4984932,30.5259674 79.1616395,31.1891138 79.9810559,31.1891138 L87.3858559,31.1891138 C88.2052724,31.1891138 88.8684187,30.5259674 88.8684187,29.7085545 C88.8684187,28.8911415 88.2052724,28.2279952 87.3858559,28.2279952" id="Fill-15"></path>
            </g>
            <g id="Page-1" transform="translate(0.000000, 119.000000)" fill="#000000">
                <path d="M32.4293733,61.8611911 C31.9823511,61.8611911 30.7143956,60.47208 29.8767511,59.5487911 C27.3554622,56.7810133 23.54324,52.59488 16.9862178,52.59488 C10.6046622,52.59488 9.26568444,54.2743467 9.26568444,55.6843467 C9.26568444,56.5366133 9.95501778,57.2280356 10.8093733,57.2280356 C11.4339511,57.2280356 11.9728844,56.8583022 12.2151956,56.3256356 C12.5201733,56.1564356 13.67324,55.6843467 16.9862178,55.6843467 C22.1791956,55.6843467 25.1809289,58.9806133 27.5915067,61.6293244 C29.2814178,63.4842578 30.6162178,64.9506578 32.4293733,64.9506578 L52.5056844,64.9506578 C53.3579511,64.9506578 54.0493733,64.2571467 54.0493733,63.4069689 C54.0493733,62.5526133 53.3579511,61.8611911 52.5056844,61.8611911 L32.4293733,61.8611911 Z" id="Fill-1"></path>
                <path d="M36.4227022,12.3058533 C36.5898133,12.6108311 37.0619022,13.7638978 37.0619022,17.0768756 C37.0619022,22.2698533 33.7656356,25.2715867 31.1148356,27.6842533 C29.2599022,29.3720756 27.7955911,30.7068756 27.7955911,32.5200311 L27.7955911,52.5942533 C27.7955911,53.4486089 28.4870133,54.1400311 29.3413689,54.1400311 C30.1936356,54.1400311 30.8850578,53.4486089 30.8850578,52.5942533 L30.8850578,32.5200311 C30.8850578,32.0730089 32.2741689,30.8050533 33.1953689,29.9674089 C35.9652356,27.44612 40.1513689,23.6338978 40.1513689,17.0768756 C40.1513689,10.6974089 38.4698133,9.35634222 37.0619022,9.35634222 C36.2075467,9.35634222 35.5182133,10.0477644 35.5182133,10.9000311 C35.5182133,11.5246089 35.8879467,12.0635422 36.4227022,12.3058533" id="Fill-3"></path>
                <path d="M0,29.4316089 C0,30.2838756 0.689333333,30.9752978 1.54368889,30.9752978 L9.04071111,30.9752978 C9.16813333,31.5622756 9.26631111,32.1053867 9.26631111,32.5189867 L9.26631111,47.9621422 C9.26631111,48.8144089 9.95564444,49.50792 10.81,49.50792 C11.6643556,49.50792 12.3536889,48.8144089 12.3536889,47.9621422 L12.3536889,32.5189867 C12.3536889,30.8980089 11.7144889,28.8341867 10.9729333,26.4465867 C10.1728889,23.86472 9.26631111,20.9381867 9.26631111,18.6216089 L9.26631111,4.72423111 C9.26631111,3.87196444 9.95773333,3.17845333 10.81,3.17845333 C11.6622667,3.17845333 12.3536889,3.87196444 12.3536889,4.72423111 C12.3536889,5.57440889 13.0451111,6.26792 13.8973778,6.26792 C14.7517333,6.26792 15.4431556,5.57440889 15.4431556,4.72423111 C15.4431556,3.87196444 16.1345778,3.17845333 16.9868444,3.17845333 C17.8391111,3.17845333 18.5305333,3.87196444 18.5305333,4.72423111 C18.5305333,5.57440889 19.2219556,6.26792 20.0763111,6.26792 C20.9285778,6.26792 21.62,5.57440889 21.62,4.72423111 C21.62,3.87196444 22.3114222,3.17845333 23.1636889,3.17845333 C24.0159556,3.17845333 24.7073778,3.87196444 24.7073778,4.72423111 C24.7073778,5.57440889 25.3967111,6.26792 26.2510667,6.26792 C27.1054222,6.26792 27.7968444,5.57440889 27.7968444,4.72423111 C27.7968444,3.87196444 28.4882667,3.17845333 29.3405333,3.17845333 C30.1928,3.17845333 30.8842222,3.87196444 30.8842222,4.72423111 L30.8842222,17.07792 C30.8842222,17.9301867 31.5756444,18.6216089 32.43,18.6216089 C33.2822667,18.6216089 33.9736889,17.9301867 33.9736889,17.07792 L33.9736889,4.72423111 C33.9736889,2.16952 31.8952444,0.0910755556 29.3405333,0.0910755556 C28.1540444,0.0910755556 27.072,0.538097778 26.2510667,1.27338667 C25.4322222,0.538097778 24.3501778,0.0910755556 23.1636889,0.0910755556 C21.9772,0.0910755556 20.8951556,0.538097778 20.0763111,1.27338667 C19.2553778,0.538097778 18.1733333,0.0910755556 16.9868444,0.0910755556 C15.8003556,0.0910755556 14.7183111,0.538097778 13.8994667,1.27338667 C13.0785333,0.538097778 11.9964889,0.0910755556 10.81,0.0910755556 C8.25528889,0.0910755556 6.17684444,2.16952 6.17684444,4.72423111 L6.17684444,9.35529778 L1.54368889,9.35529778 C0.689333333,9.35529778 0,10.0488089 0,10.8989867 C0,11.7533422 0.689333333,12.4447644 1.54368889,12.4447644 L6.17684444,12.4447644 L6.17684444,18.6216089 C6.17684444,21.4060978 7.15862222,24.5707644 8.02342222,27.36152 C8.07982222,27.5390756 8.13204444,27.7103644 8.18635556,27.88792 L1.54368889,27.88792 C0.689333333,27.88792 0,28.5793422 0,29.4316089" id="Fill-5"></path>
                <path d="M62.77884,33.2879067 C65.3001289,36.0556844 69.1123511,40.2418178 75.6693733,40.2418178 C82.0530178,40.2418178 83.3899067,38.5623511 83.3899067,37.1523511 C83.3899067,36.3000844 82.7005733,35.6086622 81.8462178,35.6086622 C81.2237289,35.6086622 80.6827067,35.9783956 80.4403956,36.5131511 C80.1375067,36.6802622 78.98444,37.1523511 75.6693733,37.1523511 C70.4784844,37.1523511 67.4746622,33.8560844 65.0640844,31.2073733 C63.3741733,29.35244 62.0393733,27.8881289 60.2262178,27.8881289 L40.1499067,27.8881289 C39.29764,27.8881289 38.6062178,28.5795511 38.6062178,29.4318178 C38.6062178,30.2840844 39.29764,30.9755067 40.1499067,30.9755067 L60.2262178,30.9755067 C60.67324,30.9755067 61.9411956,32.3646178 62.77884,33.2879067" id="Fill-7"></path>
                <path d="M47.8719022,80.3927689 L32.4287467,80.3927689 C30.80568,80.3927689 28.7439467,81.0319689 26.3563467,81.7735244 C23.77448,82.5735689 20.8479467,83.4822356 18.5313689,83.4822356 L4.63190222,83.4822356 C3.77963556,83.4822356 3.08821333,82.7866356 3.08821333,81.9364578 C3.08821333,81.08628 3.77963556,80.3927689 4.63190222,80.3927689 C5.48625778,80.3927689 6.17559111,79.7013467 6.17559111,78.84908 C6.17559111,77.9968133 5.48625778,77.3053911 4.63190222,77.3053911 C3.77963556,77.3053911 3.08821333,76.61188 3.08821333,75.7596133 C3.08821333,74.9094356 3.77963556,74.2159244 4.63190222,74.2159244 C5.48625778,74.2159244 6.17559111,73.5224133 6.17559111,72.6722356 C6.17559111,71.81788 5.48625778,71.1264578 4.63190222,71.1264578 C3.77963556,71.1264578 3.08821333,70.4329467 3.08821333,69.5827689 C3.08821333,68.7305022 3.77963556,68.03908 4.63190222,68.03908 C5.48625778,68.03908 6.17559111,67.3476578 6.17559111,66.4933022 C6.17559111,65.6431244 5.48625778,64.9496133 4.63190222,64.9496133 C3.77963556,64.9496133 3.08821333,64.2561022 3.08821333,63.4059244 C3.08821333,62.5557467 3.77963556,61.8601467 4.63190222,61.8601467 L16.98768,61.8601467 C17.8399467,61.8601467 18.5313689,61.1687244 18.5313689,60.3164578 C18.5313689,59.4641911 17.8399467,58.7727689 16.98768,58.7727689 L4.63190222,58.7727689 C2.07928,58.7727689 0.000835555556,60.8512133 0.000835555556,63.4059244 C0.000835555556,64.5924133 0.447857778,65.6744578 1.18314667,66.4933022 C0.447857778,67.3142356 0.000835555556,68.39628 0.000835555556,69.5827689 C0.000835555556,70.7671689 0.447857778,71.8513022 1.18314667,72.6722356 C0.447857778,73.49108 0.000835555556,74.5731244 0.000835555556,75.7596133 C0.000835555556,76.9461022 0.447857778,78.0281467 1.18314667,78.84908 C0.447857778,79.6679244 0.000835555556,80.7499689 0.000835555556,81.9364578 C0.000835555556,84.4911689 2.07928,86.5696133 4.63190222,86.5696133 L9.26505778,86.5696133 L9.26505778,91.2027689 C9.26505778,92.0550356 9.95648,92.7464578 10.8087467,92.7464578 C11.6631022,92.7464578 12.3545244,92.0550356 12.3545244,91.2027689 L12.3545244,86.5696133 L18.5313689,86.5696133 C21.3158578,86.5696133 24.4784356,85.5878356 27.2691911,84.7230356 C27.4488356,84.6666356 27.6201244,84.6165022 27.7955911,84.5621911 L27.7955911,91.2027689 C27.7955911,92.0550356 28.4870133,92.7464578 29.3413689,92.7464578 C30.1936356,92.7464578 30.8850578,92.0550356 30.8850578,91.2027689 L30.8850578,83.7057467 C31.4741244,83.5762356 32.0130578,83.4822356 32.4287467,83.4822356 L47.8719022,83.4822356 C48.7262578,83.4822356 49.4155911,82.7887244 49.4155911,81.9364578 C49.4155911,81.0841911 48.7262578,80.3927689 47.8719022,80.3927689" id="Fill-9"></path>
                <path d="M91.47328,13.98908 C92.2085689,13.1681467 92.6555911,12.0861022 92.6555911,10.8996133 C92.6555911,8.34699111 90.5771467,6.26645778 88.0245244,6.26645778 L83.3913689,6.26645778 L83.3913689,1.63539111 C83.3913689,0.783124444 82.6999467,0.0896133333 81.8455911,0.0896133333 C80.9933244,0.0896133333 80.3019022,0.783124444 80.3019022,1.63539111 L80.3019022,6.26645778 L74.1250578,6.26645778 C71.3405689,6.26645778 68.1759022,7.24823556 65.3851467,8.11512444 C65.2075911,8.16943556 65.0363022,8.22165778 64.8587467,8.27388 L64.8587467,1.63539111 C64.8587467,0.783124444 64.1694133,0.0896133333 63.3150578,0.0896133333 C62.4607022,0.0896133333 61.7713689,0.783124444 61.7713689,1.63539111 L61.7713689,9.13032444 C61.1823022,9.25983556 60.64128,9.35592444 60.22768,9.35592444 L44.7845244,9.35592444 C43.9301689,9.35592444 43.2408356,10.0473467 43.2408356,10.8996133 C43.2408356,11.75188 43.9301689,12.4453911 44.7845244,12.4453911 L60.2255911,12.4453911 C61.8486578,12.4453911 63.91248,11.8041022 66.30008,11.0625467 C68.8798578,10.2645911 71.80848,9.35592444 74.1250578,9.35592444 L88.0245244,9.35592444 C88.8747022,9.35592444 89.5682133,10.0494356 89.5682133,10.8996133 C89.5682133,11.75188 88.8747022,12.4453911 88.0245244,12.4453911 C87.1701689,12.4453911 86.4787467,13.1368133 86.4787467,13.98908 C86.4787467,14.8413467 87.1701689,15.5327689 88.0245244,15.5327689 C88.8747022,15.5327689 89.5682133,16.22628 89.5682133,17.0785467 C89.5682133,17.9287244 88.8747022,18.6222356 88.0245244,18.6222356 C87.1701689,18.6222356 86.4787467,19.3136578 86.4787467,20.1659244 C86.4787467,21.0181911 87.1701689,21.7096133 88.0245244,21.7096133 C88.8747022,21.7096133 89.5682133,22.4031244 89.5682133,23.2533022 C89.5682133,24.1055689 88.8747022,24.7969911 88.0245244,24.7969911 C87.1701689,24.7969911 86.4787467,25.4905022 86.4787467,26.3427689 C86.4787467,27.1950356 87.1701689,27.8864578 88.0245244,27.8864578 C88.8747022,27.8864578 89.5682133,28.5799689 89.5682133,29.4301467 C89.5682133,30.2824133 88.8747022,30.9759244 88.0245244,30.9759244 L75.6687467,30.9759244 C74.8143911,30.9759244 74.1250578,31.6673467 74.1250578,32.5196133 C74.1250578,33.37188 74.8143911,34.0633022 75.6687467,34.0633022 L88.0245244,34.0633022 C90.5771467,34.0633022 92.6555911,31.9848578 92.6555911,29.4301467 C92.6555911,28.2457467 92.2085689,27.1616133 91.47328,26.34068 C92.2085689,25.5239244 92.6555911,24.44188 92.6555911,23.2533022 C92.6555911,22.0689022 92.2085689,20.9868578 91.47328,20.1659244 C92.2085689,19.3449911 92.6555911,18.2629467 92.6555911,17.0785467 C92.6555911,15.8920578 92.2085689,14.8100133 91.47328,13.98908" id="Fill-11"></path>
                <path d="M56.2328889,80.53168 C56.0657778,80.2267022 55.5936889,79.0736356 55.5936889,75.7606578 C55.5936889,70.56768 58.8899556,67.5659467 61.5407556,65.15328 C63.3956889,63.4633689 64.86,62.1306578 64.86,60.3175022 L64.86,40.2411911 C64.86,39.3889244 64.1685778,38.6975022 63.3163111,38.6975022 C62.4598667,38.6975022 61.7705333,39.3889244 61.7705333,40.2411911 L61.7705333,60.3175022 C61.7705333,60.7645244 60.3814222,62.0303911 59.4602222,62.8701244 C56.6903556,65.3914133 52.5042222,69.2015467 52.5042222,75.7606578 C52.5042222,82.1401244 54.1857778,83.4811911 55.5936889,83.4811911 C56.4480444,83.4811911 57.1373778,82.7897689 57.1373778,81.9354133 C57.1373778,81.3129244 56.7676444,80.7739911 56.2328889,80.53168" id="Fill-13"></path>
                <path d="M92.6566356,63.4059244 C92.6566356,62.5536578 91.9652133,61.8601467 91.1108578,61.8601467 L83.6159244,61.8601467 C83.4885022,61.2752578 83.3903244,60.7321467 83.3903244,60.3164578 L83.3903244,44.8733022 C83.3903244,44.0231244 82.7009911,43.3296133 81.8466356,43.3296133 C80.99228,43.3296133 80.3029467,44.0231244 80.3029467,44.8733022 L80.3029467,60.3164578 C80.3029467,61.9374356 80.9421467,64.0012578 81.6837022,66.3909467 C82.4816578,68.9728133 83.3903244,71.8993467 83.3903244,74.2159244 L83.3903244,88.1133022 C83.3903244,88.9655689 82.6989022,89.6569911 81.8466356,89.6569911 C80.9943689,89.6569911 80.3029467,88.9655689 80.3029467,88.1133022 C80.3029467,87.2610356 79.6115244,86.5696133 78.7571689,86.5696133 C77.9049022,86.5696133 77.21348,87.2610356 77.21348,88.1133022 C77.21348,88.9655689 76.5220578,89.6569911 75.6697911,89.6569911 C74.8175244,89.6569911 74.1261022,88.9655689 74.1261022,88.1133022 C74.1261022,87.2610356 73.43468,86.5696133 72.5803244,86.5696133 C71.7280578,86.5696133 71.0366356,87.2610356 71.0366356,88.1133022 C71.0366356,88.9655689 70.3452133,89.6569911 69.4929467,89.6569911 C68.64068,89.6569911 67.9492578,88.9655689 67.9492578,88.1133022 C67.9492578,87.2610356 67.2578356,86.5696133 66.4055689,86.5696133 C65.5491244,86.5696133 64.8597911,87.2610356 64.8597911,88.1133022 C64.8597911,88.9655689 64.1683689,89.6569911 63.3161022,89.6569911 C62.4638356,89.6569911 61.7724133,88.9655689 61.7724133,88.1133022 L61.7724133,75.7596133 C61.7724133,74.9073467 61.0809911,74.2159244 60.2287244,74.2159244 C59.3743689,74.2159244 58.6829467,74.9073467 58.6829467,75.7596133 L58.6829467,88.1133022 C58.6829467,90.6680133 60.7613911,92.7464578 63.3161022,92.7464578 C64.5025911,92.7464578 65.5846356,92.2994356 66.4055689,91.5641467 C67.2244133,92.2994356 68.3064578,92.7464578 69.4929467,92.7464578 C70.6773467,92.7464578 71.76148,92.2994356 72.5803244,91.5641467 C73.4012578,92.2994356 74.4833022,92.7464578 75.6697911,92.7464578 C76.85628,92.7464578 77.9383244,92.2994356 78.7571689,91.5641467 C79.5781022,92.2994356 80.6601467,92.7464578 81.8466356,92.7464578 C84.4013467,92.7464578 86.4797911,90.6680133 86.4797911,88.1133022 L86.4797911,83.4822356 L91.1108578,83.4822356 C91.9673022,83.4822356 92.6566356,82.7887244 92.6566356,81.9364578 C92.6566356,81.0841911 91.9673022,80.3927689 91.1108578,80.3927689 L86.4797911,80.3927689 L86.4797911,74.2159244 C86.4797911,71.4314356 85.4980133,68.2667689 84.6332133,65.4739244 C84.5768133,65.2984578 84.5245911,65.12508 84.47028,64.9496133 L91.1108578,64.9496133 C91.9652133,64.9496133 92.6566356,64.2581911 92.6566356,63.4059244" id="Fill-15"></path>
            </g>
            <g id="Page-1" transform="translate(0.000000, 242.000000)" fill="#010201">
                <path d="M42.3801029,26.4368432 L42.3801029,17.6845023 C45.2302457,18.0951159 47.8288457,19.4988886 49.7336743,21.6591614 L42.3801029,26.4368432 Z M53.71576,21.1453886 C50.81896,16.7196614 45.9280743,14.0779795 40.6335029,14.0779795 C39.6699314,14.0779795 38.8889314,14.8587523 38.8889314,15.8195477 L38.8889314,29.6489341 C38.8889314,30.2881159 39.2398743,30.8747068 39.8017886,31.1801386 C40.0634743,31.3197068 40.3495029,31.3905023 40.6335029,31.3905023 C40.9661886,31.3905023 41.2988743,31.2954341 41.5869314,31.1073205 L53.2086171,23.5564795 C53.5960743,23.3036386 53.8679029,22.9071841 53.9632457,22.4561159 C54.0585886,22.003025 53.9693314,21.5317295 53.71576,21.1453886 L53.71576,21.1453886 Z" id="Fill-1"></path>
                <path d="M48.61228,32.763125 C49.6651086,34.8627159 50.21688,37.1807614 50.21688,39.5574659 C50.21688,47.9457159 43.37248,54.7703977 34.9599943,54.7703977 C26.5475086,54.7703977 19.7031086,47.9457159 19.7031086,39.5574659 C19.7031086,35.5302159 21.27728,31.7335568 24.07468,28.8997159 L33.6008514,40.6517614 C34.1647943,41.3475795 35.1628514,41.5033295 35.9134229,41.0158523 L48.61228,32.763125 Z M26.7889086,26.7091023 C28.7363371,25.4671477 30.9150229,24.7005341 33.2133943,24.4436477 L33.2133943,34.6361705 L26.7889086,26.7091023 Z M34.9599943,20.8654432 C30.6817371,20.8654432 26.4967943,22.3400114 23.1739943,25.020125 C18.74968,28.5902386 16.2119371,33.8897841 16.2119371,39.5574659 C16.2119371,49.8652841 24.6223943,58.2515114 34.9599943,58.2515114 C45.2975943,58.2515114 53.7080514,49.8652841 53.7080514,39.5574659 C53.7080514,35.9165568 52.6552229,32.3868977 50.6651943,29.3487614 C50.1397943,28.5457386 49.0585657,28.3191932 48.2511943,28.8430795 L36.7045657,36.345375 L36.7045657,22.6049886 C36.7045657,21.6441932 35.9235657,20.8654432 34.9599943,20.8654432 L34.9599943,20.8654432 Z" id="Fill-3"></path>
                <path d="M64.8138714,78.2394955 C65.7044143,78.2394955 66.4286143,78.9616091 66.4286143,79.8495864 L66.4286143,82.2910182 C66.4286143,83.1789955 65.7044143,83.9011091 64.8138714,83.9011091 L5.1049,83.9011091 C4.21638571,83.9011091 3.49218571,83.1789955 3.49218571,82.2910182 L3.49218571,79.8495864 C3.49218571,78.9616091 4.21638571,78.2394955 5.1049,78.2394955 L64.8138714,78.2394955 Z M9.00381429,74.7583818 L60.9149571,74.7583818 L60.9149571,3.48151818 L9.00381429,3.48151818 L9.00381429,74.7583818 Z M3.91007143,0.000404545455 C2.94447143,0.000404545455 2.16347143,0.779154545 2.16347143,1.73995 C2.16347143,2.70276818 2.94447143,3.48151818 3.91007143,3.48151818 L5.51264286,3.48151818 L5.51264286,74.7583818 L5.1049,74.7583818 C2.29127143,74.7583818 0.00101428571,77.0420409 0.00101428571,79.8495864 L0.00101428571,82.2910182 C0.00101428571,85.0985636 2.29127143,87.3822227 5.1049,87.3822227 L64.8138714,87.3822227 C67.6295286,87.3822227 69.9197857,85.0985636 69.9197857,82.2910182 L69.9197857,79.8495864 C69.9197857,77.0420409 67.6295286,74.7583818 64.8138714,74.7583818 L64.4061286,74.7583818 L64.4061286,3.48151818 L66.0107286,3.48151818 C66.9743,3.48151818 67.7553,2.70276818 67.7553,1.73995 C67.7553,0.779154545 66.9743,0.000404545455 66.0107286,0.000404545455 L3.91007143,0.000404545455 Z" id="Fill-5"></path>
                <path d="M54.2898457,61.5732341 L15.6293314,61.5732341 C14.66576,61.5732341 13.88476,62.3519841 13.88476,63.3148023 C13.88476,64.2755977 14.66576,65.0543477 15.6293314,65.0543477 L54.2898457,65.0543477 C55.2534171,65.0543477 56.0364457,64.2755977 56.0364457,63.3148023 C56.0364457,62.3519841 55.2534171,61.5732341 54.2898457,61.5732341" id="Fill-7"></path>
                <path d="M54.2898457,6.80263409 L53.4784171,6.80263409 C52.5148457,6.80263409 51.7338457,7.58138409 51.7338457,8.54420227 C51.7338457,9.50499773 52.5148457,10.2837477 53.4784171,10.2837477 L54.2898457,10.2837477 C55.2534171,10.2837477 56.0364457,9.50499773 56.0364457,8.54420227 C56.0364457,7.58138409 55.2534171,6.80263409 54.2898457,6.80263409" id="Fill-9"></path>
                <path d="M15.6295343,10.2841523 L47.1819343,10.2841523 C48.1455057,10.2841523 48.9265057,9.50540227 48.9265057,8.54258409 C48.9265057,7.58178864 48.1455057,6.80303864 47.1819343,6.80303864 L15.6295343,6.80303864 C14.6659629,6.80303864 13.8829343,7.58178864 13.8829343,8.54258409 C13.8829343,9.50540227 14.6659629,10.2841523 15.6295343,10.2841523" id="Fill-11"></path>
                <path d="M54.2898457,68.0273523 L15.6293314,68.0273523 C14.66576,68.0273523 13.88476,68.8061023 13.88476,69.7689205 C13.88476,70.7297159 14.66576,71.5084659 15.6293314,71.5084659 L54.2898457,71.5084659 C55.2534171,71.5084659 56.0364457,70.7297159 56.0364457,69.7689205 C56.0364457,68.8061023 55.2534171,68.0273523 54.2898457,68.0273523" id="Fill-13"></path>
            </g>
            <path d="M83.5960352,382.642615 C83.6625686,382.649054 83.7269558,382.653347 83.7934892,382.653347 C84.2635157,382.653347 84.7185185,382.466624 85.0554782,382.129664 L94.6770706,372.510218 C95.1664133,372.020875 95.3295275,371.291154 95.0934411,370.640843 C94.8573547,369.988386 94.2649926,369.533383 93.5760497,369.471143 L86.3818543,368.816539 L85.7272512,361.622344 C85.6650102,360.933401 85.2100074,360.341039 84.5575506,360.107099 C83.9072399,359.871012 83.1775184,360.03198 82.6881758,360.523469 L73.0665834,370.142916 C72.6845527,370.527092 72.4956836,371.063652 72.5557783,371.602358 L73.4078355,379.268727 L71.6049941,381.069422 C64.9516512,374.982686 56.2228944,371.12804 46.6184719,370.700938 L46.6184719,367.314172 C46.6184719,366.326901 45.8200707,365.5285 44.8349467,365.5285 C43.8498227,365.5285 43.0492753,366.326901 43.0492753,367.314172 L43.0492753,370.700938 C22.5741489,371.610943 6.08244323,388.102649 5.17243761,408.579922 L1.78352517,408.579922 C0.798401158,408.579922 0,409.378323 0,410.365593 C0,411.348571 0.798401158,412.149118 1.78352517,412.149118 L5.17243761,412.149118 C6.08244323,432.624245 22.5741489,449.11595 43.0492753,450.025956 L43.0492753,453.414869 C43.0492753,454.399993 43.8498227,455.198394 44.8349467,455.198394 C45.8200707,455.198394 46.6184719,454.399993 46.6184719,453.414869 L46.6184719,450.025956 C67.0957446,449.11595 83.5874502,432.624245 84.4974558,412.149118 L87.884222,412.149118 C88.8714923,412.149118 89.6698935,411.348571 89.6698935,410.365593 C89.6698935,409.378323 88.8714923,408.579922 87.884222,408.579922 L84.4974558,408.579922 C84.0703542,398.975499 80.2178539,390.246743 74.128972,383.591253 L75.9318133,381.790558 L83.5960352,382.642615 Z M82.5186229,365.740978 L82.9628945,370.621527 C83.0423053,371.477877 83.7205171,372.158235 84.579013,372.235499 L89.459562,372.679771 L83.1367399,379.000447 L76.8911825,378.307211 L76.197947,372.061654 L82.5186229,365.740978 Z M80.926113,408.579922 L78.4128664,408.579922 C77.4277424,408.579922 76.627195,409.378323 76.627195,410.365593 C76.627195,411.348571 77.4277424,412.149118 78.4128664,412.149118 L80.926113,412.149118 C80.0225461,430.656143 65.1276428,445.551046 46.6184719,446.454613 L46.6184719,443.941367 C46.6184719,442.956243 45.8200707,442.157841 44.8349467,442.157841 C43.8498227,442.157841 43.0492753,442.956243 43.0492753,443.941367 L43.0492753,446.454613 C24.5422506,445.551046 9.64734732,430.656143 8.74378042,412.149118 L11.2570271,412.149118 C12.2421511,412.149118 13.0405522,411.348571 13.0405522,410.365593 C13.0405522,409.378323 12.2421511,408.579922 11.2570271,408.579922 L8.74378042,408.579922 C9.64734732,390.070751 24.5422506,375.177994 43.0492753,374.272281 L43.0492753,376.787674 C43.0492753,377.772798 43.8498227,378.571199 44.8349467,378.571199 C45.8200707,378.571199 46.6184719,377.772798 46.6184719,376.787674 L46.6184719,374.272281 C55.2399167,374.69509 63.0758377,378.150536 69.0810163,383.5934 L63.7111246,388.963291 C58.6760464,384.516283 52.0656282,381.812021 44.8349467,381.812021 C29.0922787,381.812021 16.2835204,394.620779 16.2835204,410.365593 C16.2835204,426.108261 29.0922787,438.91702 44.8349467,438.91702 C60.5776147,438.91702 73.3863731,426.108261 73.3863731,410.365593 C73.3863731,403.132766 70.6821111,396.522347 66.2351025,391.487269 L71.6049941,386.117377 C77.0478579,392.122556 80.5054501,399.958477 80.926113,408.579922 L80.926113,408.579922 Z M43.5729578,411.625436 C43.9227949,411.975273 44.3777977,412.149118 44.8349467,412.149118 C45.2899495,412.149118 45.7492448,411.975273 46.0969357,411.625436 L55.7872078,401.935164 C57.5879029,404.270273 58.6631689,407.193451 58.6631689,410.365593 C58.6631689,417.989037 52.4605363,424.193815 44.8349467,424.193815 C37.2093572,424.193815 31.0045783,417.989037 31.0045783,410.365593 C31.0045783,402.737857 37.2093572,396.535225 44.8349467,396.535225 C48.0049427,396.535225 50.9281212,397.610491 53.2632299,399.411186 L43.5729578,409.101458 C42.8754299,409.798986 42.8754299,410.930054 43.5729578,411.625436 L43.5729578,411.625436 Z M44.8349467,392.966028 C35.2412554,392.966028 27.4353817,400.771902 27.4353817,410.365593 C27.4353817,419.959285 35.2412554,427.763012 44.8349467,427.763012 C54.4286381,427.763012 62.2323655,419.959285 62.2323655,410.365593 C62.2323655,406.208327 60.76863,402.390167 58.3283555,399.396162 L63.7089784,394.013393 C67.5121151,398.398161 69.8171765,404.11789 69.8171765,410.365593 C69.8171765,424.140159 58.6116592,435.347823 44.8349467,435.347823 C31.0603805,435.347823 19.852717,424.140159 19.852717,410.365593 C19.852717,396.588881 31.0603805,385.381217 44.8349467,385.381217 C51.0805042,385.381217 56.8002329,387.686279 61.1850005,391.489415 L55.8043777,396.872184 C52.8082271,394.43191 48.9900667,392.966028 44.8349467,392.966028 L44.8349467,392.966028 Z" id="Page-1" fill="#000000"></path>
            <g id="Page-1" transform="translate(0.000000, 485.198394)">
                <g id="Group-3" transform="translate(58.000000, 51.095890)">
                    <mask id="mask-2" fill="white">
                        <use xlink:href="#path-1"></use>
                    </mask>
                    <g id="Clip-2"></g>
                    <path d="M14.0779533,3.50333945 C17.7493533,3.50333945 20.7382867,6.47994495 20.7382867,10.1404954 C20.7382867,13.7991193 17.7493533,16.7757248 14.0779533,16.7757248 C10.4065533,16.7757248 7.41762,13.7991193 7.41762,10.1404954 C7.41762,6.47994495 10.4065533,3.50333945 14.0779533,3.50333945 M19.6826867,17.966367 C22.1302867,16.2189358 23.7310867,13.3617798 23.7310867,10.1404954 C23.7310867,4.83655046 19.40042,0.520954128 14.0779533,0.520954128 C8.75548667,0.520954128 4.42482,4.83655046 4.42482,10.1404954 C4.42482,13.3637064 6.02562,16.2208624 8.47515333,17.966367 C3.67275333,20.1087523 0.316486667,24.915633 0.316486667,30.4893028 C0.316486667,31.3138899 0.98542,31.982422 1.81288667,31.982422 C2.63842,31.982422 3.30928667,31.3138899 3.30928667,30.4893028 C3.30928667,24.5726972 8.14068667,19.7581101 14.0779533,19.7581101 C20.01522,19.7581101 24.84662,24.5726972 24.84662,30.4893028 C24.84662,31.3138899 25.5174867,31.982422 26.34302,31.982422 C27.1704867,31.982422 27.83942,31.3138899 27.83942,30.4893028 C27.83942,24.915633 24.4850867,20.1087523 19.6826867,17.966367" id="Fill-1" fill="#010201" mask="url(#mask-2)"></path>
                </g>
                <g id="Group-6" transform="translate(29.000000, 0.233505)">
                    <mask id="mask-4" fill="white">
                        <use xlink:href="#path-3"></use>
                    </mask>
                    <g id="Clip-5"></g>
                    <path d="M21.53018,21.0664679 C19.6993133,22.9449083 18.5586467,25.3011468 18.2338467,27.815367 L15.41698,27.815367 L15.41698,19.2169266 L19.8462467,14.8030734 C20.4301133,14.2212385 20.4301133,13.2772018 19.8462467,12.6934404 C19.26238,12.1116055 18.3131133,12.1116055 17.7292467,12.6934404 L13.92058,16.4907798 L10.10998,12.6934404 C9.52611333,12.1116055 8.57878,12.1116055 7.99491333,12.6934404 C7.40911333,13.2772018 7.40911333,14.2212385 7.99491333,14.8030734 L12.42418,19.2169266 L12.42418,27.815367 L9.60538,27.815367 C9.28058,25.3030734 8.13798,22.9449083 6.30324667,21.0587615 C4.41244667,19.1148165 3.35104667,16.5543578 3.31431333,13.8474771 C3.23698,8.02334862 7.92531333,3.2183945 13.7678467,3.13555046 C13.8181133,3.13555046 13.8703133,3.13555046 13.92058,3.13555046 C16.72778,3.13555046 19.36678,4.21252294 21.36778,6.17766055 C23.4055133,8.17940367 24.5268467,10.8535321 24.5268467,13.7049083 C24.5268467,16.4695872 23.46158,19.0839908 21.53018,21.0664679 M14.77898,34.3812385 L13.06218,34.3812385 C11.2100467,34.3812385 9.70591333,32.8804128 9.70591333,31.0366514 L9.70591333,30.7996789 L18.1352467,30.7996789 L18.1352467,31.0366514 C18.1352467,32.8804128 16.62918,34.3812385 14.77898,34.3812385 M23.46738,4.05454128 C20.8554467,1.48637615 17.3928467,0.0992201835 13.7253133,0.153165138 C6.23558,0.257201835 0.222913333,6.41848624 0.321513333,13.8860092 C0.367913333,17.3577523 1.72898,20.6406881 4.15338,23.1337156 C5.80251333,24.831055 6.71118,27.0235321 6.71118,29.3065596 L6.71118,31.0366514 C6.71118,34.5257339 9.56091333,37.3636239 13.0602467,37.3636239 L14.77898,37.3636239 C18.2802467,37.3636239 21.1280467,34.5257339 21.1280467,31.0366514 L21.1280467,29.3065596 C21.1280467,27.0196789 22.0328467,24.831055 23.6781133,23.1433486 C26.1547133,20.602156 27.5196467,17.2479358 27.5196467,13.7049083 C27.5196467,10.048211 26.0812467,6.62077982 23.46738,4.05454128" id="Fill-4" fill="#010201" mask="url(#mask-4)"></path>
                </g>
                <path d="M18.6564733,49.528789 C18.2736733,49.528789 17.8908733,49.382367 17.59894,49.0914495 C17.01314,48.5096147 17.01314,47.565578 17.59894,46.9818165 L26.57734,38.0346606 C27.1612067,37.4528257 28.1104733,37.4528257 28.69434,38.0346606 C29.2782067,38.6164954 29.2782067,39.5624587 28.69434,40.1442936 L19.7140067,49.0914495 C19.4220733,49.382367 19.0392733,49.528789 18.6564733,49.528789" id="Fill-7" fill="#010201"></path>
                <path d="M67.1835267,49.528789 C66.8007267,49.528789 66.4179267,49.382367 66.1259933,49.0914495 L57.14566,40.1442936 C56.5617933,39.5605321 56.5617933,38.6164954 57.14566,38.0346606 C57.73146,37.4528257 58.6787933,37.4528257 59.26266,38.0346606 L68.24106,46.9818165 C68.82686,47.565578 68.82686,48.5096147 68.24106,49.0914495 C67.9491267,49.382367 67.5663267,49.528789 67.1835267,49.528789" id="Fill-9" fill="#010201"></path>
                <path d="M42.9198067,49.8270275 C42.09234,49.8270275 41.4234067,49.1584954 41.4234067,48.3358349 L41.4234067,42.6427156 C41.4234067,41.820055 42.09234,41.1515229 42.9198067,41.1515229 C43.7472733,41.1515229 44.4162067,41.820055 44.4162067,42.6427156 L44.4162067,48.3358349 C44.4162067,49.1584954 43.7472733,49.8270275 42.9198067,49.8270275" id="Fill-11" fill="#010201"></path>
                <path d="M68.6625267,56.3998349 C69.4899933,56.3998349 70.1589267,57.068367 70.1589267,57.8910275 C70.1589267,58.7156147 69.4899933,59.3822202 68.6625267,59.3822202 C67.83506,59.3822202 67.1661267,58.7156147 67.1661267,57.8910275 C67.1661267,57.068367 67.83506,56.3998349 68.6625267,56.3998349" id="Fill-13" fill="#010201"></path>
                <path d="M74.1501,56.3998349 C74.9775667,56.3998349 75.6465,57.068367 75.6465,57.8910275 C75.6465,58.7156147 74.9775667,59.3822202 74.1501,59.3822202 C73.3226333,59.3822202 72.6537,58.7156147 72.6537,57.8910275 C72.6537,57.068367 73.3226333,56.3998349 74.1501,56.3998349" id="Fill-15" fill="#010201"></path>
                <g id="Group-19" transform="translate(29.000000, 51.095890)">
                    <mask id="mask-6" fill="white">
                        <use xlink:href="#path-5"></use>
                    </mask>
                    <g id="Clip-18"></g>
                    <path d="M13.9198067,3.50333945 C17.5912067,3.50333945 20.58014,6.47994495 20.58014,10.1404954 C20.58014,13.7991193 17.5912067,16.7757248 13.9198067,16.7757248 C10.2484067,16.7757248 7.25947333,13.7991193 7.25947333,10.1404954 C7.25947333,6.47994495 10.2484067,3.50333945 13.9198067,3.50333945 M19.52454,17.966367 C21.97214,16.2189358 23.57294,13.3617798 23.57294,10.1404954 C23.57294,4.83655046 19.2422733,0.520954128 13.9198067,0.520954128 C8.59734,0.520954128 4.26667333,4.83655046 4.26667333,10.1404954 C4.26667333,13.3637064 5.86747333,16.2208624 8.31700667,17.966367 C3.51460667,20.1087523 0.15834,24.915633 0.15834,30.4893028 C0.15834,31.3138899 0.827273333,31.982422 1.65474,31.982422 C2.48027333,31.982422 3.15114,31.3138899 3.15114,30.4893028 C3.15114,24.5726972 7.98254,19.7581101 13.9198067,19.7581101 C19.8570733,19.7581101 24.6884733,24.5726972 24.6884733,30.4893028 C24.6884733,31.3138899 25.35934,31.982422 26.1848733,31.982422 C27.01234,31.982422 27.6812733,31.3138899 27.6812733,30.4893028 C27.6812733,24.915633 24.32694,20.1087523 19.52454,17.966367" id="Fill-17" fill="#010201" mask="url(#mask-6)"></path>
                </g>
                <path d="M40.1769867,56.3998349 C41.0044533,56.3998349 41.6733867,57.068367 41.6733867,57.8910275 C41.6733867,58.7156147 41.0044533,59.3822202 40.1769867,59.3822202 C39.34952,59.3822202 38.6805867,58.7156147 38.6805867,57.8910275 C38.6805867,57.068367 39.34952,56.3998349 40.1769867,56.3998349" id="Fill-20" fill="#010201"></path>
                <path d="M45.6647533,56.3998349 C46.49222,56.3998349 47.1611533,57.068367 47.1611533,57.8910275 C47.1611533,58.7156147 46.49222,59.3822202 45.6647533,59.3822202 C44.8372867,59.3822202 44.1683533,58.7156147 44.1683533,57.8910275 C44.1683533,57.068367 44.8372867,56.3998349 45.6647533,56.3998349" id="Fill-22" fill="#010201"></path>
                <g id="Group-26" transform="translate(0.000000, 51.095890)" fill="#010201">
                    <path d="M20.4216067,10.1397248 C20.4216067,13.7983486 17.4346067,16.7768807 13.7612733,16.7768807 C10.0898733,16.7768807 7.10287333,13.7983486 7.10287333,10.1397248 C7.10287333,6.48110092 10.0898733,3.50256881 13.7612733,3.50256881 C17.4346067,3.50256881 20.4216067,6.48110092 20.4216067,10.1397248 M-0.000193333333,30.4904587 C-0.000193333333,31.3131193 0.670673333,31.9816514 1.49620667,31.9816514 C2.32367333,31.9816514 2.99260667,31.3131193 2.99260667,30.4904587 C2.99260667,24.5738532 7.82400667,19.7592661 13.7612733,19.7592661 C19.7004733,19.7592661 24.52994,24.5738532 24.52994,30.4904587 C24.52994,31.3131193 25.2008067,31.9816514 26.0282733,31.9816514 C26.8538067,31.9816514 27.5246733,31.3131193 27.5246733,30.4904587 C27.5246733,24.9148624 24.1684067,20.1099083 19.3640733,17.9675229 C21.8136067,16.2200917 23.4144067,13.3629358 23.4144067,10.1397248 C23.4144067,4.83577982 19.08374,0.520183486 13.7612733,0.520183486 C8.43880667,0.520183486 4.11007333,4.83577982 4.11007333,10.1397248 C4.11007333,13.3629358 5.70894,16.2181651 8.15847333,17.9655963 C3.35414,20.1079817 -0.000193333333,24.916789 -0.000193333333,30.4904587" id="Fill-24"></path>
                </g>
                <path d="M17.17728,56.3998349 C18.0047467,56.3998349 18.67368,57.068367 18.67368,57.8910275 C18.67368,58.7156147 18.0047467,59.3822202 17.17728,59.3822202 C16.3498133,59.3822202 15.68088,58.7156147 15.68088,57.8910275 C15.68088,57.068367 16.3498133,56.3998349 17.17728,56.3998349" id="Fill-27" fill="#010201"></path>
                <path d="M11.6895133,56.3998349 C12.51698,56.3998349 13.1859133,57.068367 13.1859133,57.8910275 C13.1859133,58.7156147 12.51698,59.3822202 11.6895133,59.3822202 C10.8620467,59.3822202 10.1931133,58.7156147 10.1931133,57.8910275 C10.1931133,57.068367 10.8620467,56.3998349 11.6895133,56.3998349" id="Fill-29" fill="#010201"></path>
            </g>
            <g id="Page-1" transform="translate(0.000000, 599.198394)" fill="#000000">
                <path d="M60.2748128,46.1386346 L55.1755564,46.1386346 L55.6379667,41.64075 C55.7162487,40.7875769 55.0972744,40.0129615 54.2470949,39.9344038 C53.3987359,39.8576731 52.6250179,40.4788269 52.5485564,41.332 L48.9166333,79.712 C48.375941,85.2950769 43.7390949,89.5591154 38.1756077,89.5591154 L17.4690949,89.5591154 C11.8291462,89.5591154 7.1923,85.3718077 6.72806923,79.712 L3.25271026,43.0365192 L34.7767103,43.0365192 C35.6268897,43.0365192 36.3223256,42.3386346 36.3223256,41.4872885 C36.3223256,40.6322885 35.6268897,39.9344038 34.7767103,39.9344038 L2.32424872,39.9344038 C2.16950513,39.9344038 2.09304359,39.9344038 1.9383,40.0129615 C1.78355641,39.9344038 1.55235128,39.9344038 1.39760769,39.9344038 C0.547428205,40.0129615 -0.0715461538,40.7875769 0.00673589744,41.64075 L3.63865897,80.0225769 C4.25581282,87.2334423 10.2052487,92.6612308 17.4690949,92.6612308 L38.1756077,92.6612308 C45.3611718,92.6612308 51.3124282,87.2334423 52.0060436,80.0225769 L52.3155308,76.3796923 L60.2748128,76.3796923 C65.3740692,76.3796923 69.5466846,72.1923846 69.5466846,67.0733462 L69.5466846,55.4431538 C69.5466846,50.3241154 65.3740692,46.1386346 60.2748128,46.1386346 M60.2748128,73.2775769 L52.6250179,73.2775769 L54.8660692,49.24075 L60.1983513,49.24075 C63.5972487,49.24075 66.3789923,52.0322885 66.3789923,55.4431538 L66.3789923,67.0733462 L66.4554538,67.0733462 C66.4554538,70.4860385 63.6737103,73.2775769 60.2748128,73.2775769" id="Fill-1"></path>
                <g id="Group-11" transform="translate(11.923077, 0.365385)">
                    <path d="M28.2616487,41.1213558 C28.2616487,41.9745288 28.9570846,42.6724135 29.8072641,42.6724135 L32.1247769,42.6724135 C32.9749564,42.6724135 33.6703923,41.9745288 33.6703923,41.1213558 C33.6703923,40.2681827 32.9749564,39.5702981 32.1247769,39.5702981 L29.8072641,39.5702981 C28.9570846,39.5702981 28.2616487,40.2681827 28.2616487,41.1213558" id="Fill-3"></path>
                    <path d="M2.84164615,32.9793077 C2.99456923,33.6771923 3.69182564,34.1430577 4.30897949,34.1430577 C4.46372308,34.1430577 4.61846667,34.1430577 4.69674872,34.0645 C5.54510769,33.8324808 6.00933846,32.9793077 5.77813333,32.1261346 L4.07777436,26.0790192 C3.30405641,23.4427692 3.69182564,20.6512308 5.08269744,18.247 L5.69985128,17.2385385 C6.85951795,15.2234423 7.47849231,13.1297885 7.47849231,10.9594038 C7.47849231,10.1062308 6.78305641,9.40651923 5.93105641,9.40651923 C5.08269744,9.40651923 4.38726154,10.1062308 4.38726154,10.9594038 C4.38726154,12.5871923 3.92303077,14.1364231 3.07285128,15.6893077 L2.45569744,16.6959423 C0.600594872,19.7980577 0.136364103,23.5195 1.14128718,27.0089231 L2.84164615,32.9793077 Z" id="Fill-5"></path>
                    <path d="M14.4315769,32.9793077 C14.5845,33.6771923 15.2817564,34.1430577 15.8989103,34.1430577 C16.0536538,34.1430577 16.2083974,34.1430577 16.2866795,34.0645 C17.1350385,33.8324808 17.5992692,32.9793077 17.3680641,32.1261346 L15.6677051,26.0790192 C14.8939872,23.4427692 15.2817564,20.6512308 16.6726282,18.247 L17.2897821,17.1618077 C18.9136795,14.2917115 19.4525513,10.8808462 18.7571154,7.54671154 L17.3680641,1.88690385 C17.1350385,1.03373077 16.363141,0.567865385 15.5129615,0.723153846 C14.6627821,0.955173077 14.2003718,1.73161538 14.3551154,2.58478846 L15.7441667,8.16786538 C16.2866795,10.6488269 15.8989103,13.2850769 14.6627821,15.4554615 L14.0456282,16.4639231 C12.1905256,19.5660385 11.7262949,23.2874808 12.7312179,26.7769038 L14.4315769,32.9793077 Z" id="Fill-7"></path>
                    <path d="M26.0215077,32.9793077 C26.1744308,33.6771923 26.8716872,34.1430577 27.488841,34.1430577 C27.6435846,34.1430577 27.7983282,34.1430577 27.8766103,34.0645 C28.7249692,33.8324808 29.1892,32.9793077 28.9579949,32.1261346 L27.2576359,26.0790192 C26.4839179,23.4427692 26.8716872,20.6512308 28.262559,18.247 C28.7249692,17.4723846 28.4154821,16.5406538 27.7218667,16.1533462 C26.9481487,15.6893077 26.0215077,15.9980577 25.635559,16.6959423 C23.7804564,19.7980577 23.3162256,23.5195 24.3211487,27.0089231 L26.0215077,32.9793077 Z" id="Fill-9"></path>
                </g>
            </g>
        </g>
    </g>
</svg>