<?xml version="1.0" encoding="UTF-8"?>
<svg width="117px" height="823px" viewBox="0 0 117 823" version="1.1" xmlns="http://www.w3.org/2000/svg" xmlns:xlink="http://www.w3.org/1999/xlink">
    <!-- Generator: Sketch 44.1 (41455) - http://www.bohemiancoding.com/sketch -->
    <title>Group@2x</title>
    <desc>Created with Sketch.</desc>
    <defs>
        <polygon id="path-1" points="0 15.1206944 0 0.167885726 43.4988313 0.167885726 43.4988313 15.1206944"></polygon>
        <polygon id="path-3" points="0.0171219512 0.144192661 0.0171219512 92.9997156 116.885283 92.9997156 116.885283 0.144192661"></polygon>
        <polygon id="path-5" points="0.213138908 0 65.8604856 0 65.8604856 110.999935 0.213138908 110.999935"></polygon>
        <polygon id="path-7" points="9.19639279 0.201989648 9.19639279 3.82163027 0.0218054333 3.82163027 0.0218054333 0.201989648 9.19639279 0.201989648"></polygon>
    </defs>
    <g id="Page-1" stroke="none" stroke-width="1" fill="none" fill-rule="evenodd">
        <g id="Group">
            <g id="Page-1" transform="translate(4.000000, 125.000000)">
                <path d="M72.7025469,60.0350019 L72.7025469,60.0350019 C67.4976094,65.2543392 60.5774531,68.1292809 53.2171719,68.1295001 C45.8566719,68.1295001 38.9367344,65.2545584 33.7317969,60.0350019 C22.9861406,49.2588465 22.9861406,31.7245291 33.7317969,20.9483737 C38.9367344,15.7288172 45.8566719,12.8540946 53.2171719,12.8540946 C60.5774531,12.8540946 67.4973906,15.7288172 72.7025469,20.9481545 C83.4479844,31.7245291 83.4479844,49.2588465 72.7025469,60.0350019 M75.3822344,18.2664973 C69.4622031,12.3294654 61.5904844,9.05962742 53.2173906,9.05962742 C44.8447344,9.05962742 36.9721406,12.3296846 31.0521094,18.2667164 C18.8318594,30.5216512 18.8318594,50.4619435 31.0521094,62.7173166 C36.9727969,68.6545675 44.8445156,71.9244056 53.2173906,71.9244056 C61.5904844,71.9244056 69.4622031,68.6545675 75.3822344,62.7170974 C87.6024844,50.4619435 87.6024844,30.5216512 75.3822344,18.2664973" id="Fill-1" fill="#87D03F"></path>
                <path d="M53.2171281,17.3785503 C53.2169094,17.3785503 53.2173469,17.3785503 53.2171281,17.3785503 C47.0601906,17.3785503 41.2709719,19.7832103 36.9176281,24.1487652 C36.1784719,24.8903463 36.1789094,26.091471 36.9189406,26.8321756 C37.6587531,27.572661 38.8581594,27.5722227 39.5975344,26.8308607 C43.2357844,23.182343 48.0725656,21.1732367 53.2171281,21.1732367 C58.3619094,21.1732367 63.1982531,23.182343 66.8367219,26.8308607 C67.2066281,27.2018704 67.6915969,27.3872657 68.1767844,27.3872657 C68.6610969,27.3872657 69.1451906,27.2023087 69.5153156,26.8321756 C70.2555656,26.0916902 70.2560031,24.8903463 69.5166281,24.1492034 C65.1628469,19.7827721 59.3742844,17.3785503 53.2171281,17.3785503" id="Fill-3" fill="#87D03F"></path>
                <g id="Group-7" transform="translate(0.000000, 93.331402)">
                    <mask id="mask-2" fill="white">
                        <use xlink:href="#path-1"></use>
                    </mask>
                    <g id="Clip-6"></g>
                    <path d="M41.6048938,0.167885726 L1.89389375,0.167885726 C0.84805,0.167885726 -4.375e-05,1.01728538 -4.375e-05,2.06522891 L-4.375e-05,13.2235703 C-4.375e-05,14.2712947 0.84805,15.1206944 1.89389375,15.1206944 L10.1180188,15.1206944 C11.1640813,15.1206944 12.0119563,14.2712947 12.0119563,13.2235703 C12.0119563,12.1756268 11.1640813,11.3262272 10.1180188,11.3262272 L3.78805,11.3262272 L3.78805,3.96257209 L39.7109563,3.96257209 L39.7109563,11.3262272 L22.382675,11.3262272 C21.3366125,11.3262272 20.4887375,12.1756268 20.4887375,13.2235703 C20.4887375,14.2712947 21.3366125,15.1206944 22.382675,15.1206944 L41.6048938,15.1206944 C42.6507375,15.1206944 43.4988313,14.2712947 43.4988313,13.2235703 L43.4988313,2.06522891 C43.4988313,1.01728538 42.651175,0.167885726 41.6048938,0.167885726" id="Fill-5" fill="#87D03F" mask="url(#mask-2)"></path>
                </g>
                <path d="M100.029409,95.0133935 L86.5176594,81.4773466 L87.4350969,80.5589168 C87.4370656,80.5569445 87.4392531,80.5551914 87.4412219,80.5534382 L92.9944094,74.990265 C92.9961594,74.9885118 92.9974719,74.9867587 92.9992219,74.9847864 L93.9162219,74.0663566 L107.427316,87.6019651 L100.029409,95.0133935 Z M80.5225969,70.940934 C80.7153156,70.7660576 80.9051906,70.5872366 81.0948469,70.4088539 C81.1403469,70.3659018 81.1862844,70.3244838 81.2315656,70.2815317 C81.4826906,70.0426654 81.7314094,69.8009503 81.9764094,69.5563863 C82.0730969,69.4597441 82.1667219,69.360253 82.2623156,69.2627342 C82.3789094,69.1437393 82.4959406,69.0254019 82.6103469,68.9055305 C82.7249719,68.78544 82.8371906,68.664692 82.9498469,68.5437248 C83.0465344,68.44007 83.1436594,68.3361961 83.2392531,68.2316647 C83.2910969,68.1746874 83.3451281,68.1183676 83.3971906,68.0613903 L88.9764094,73.6488885 L86.1015969,76.5286513 L80.5225969,70.940934 Z M67.9667844,85.4363905 L3.78794063,85.4363905 L3.78794063,78.0729546 L35.8752844,78.0729546 C36.1174406,78.0729546 36.3482219,78.0256196 36.5610656,77.9430025 C41.8338156,80.294849 47.5064406,81.473402 53.1803781,81.473402 C58.2020031,81.473402 63.2227531,80.5492745 67.9667844,78.7071554 L67.9667844,85.4363905 Z M3.78794063,59.4398524 L16.9792219,59.4398524 C18.3271594,62.0461243 19.9640656,64.5138976 21.8741906,66.8032883 L3.78794063,66.8032883 L3.78794063,59.4398524 Z M95.2556281,70.0411314 C94.5160344,69.3002077 93.3168469,69.2999886 92.5770344,70.0411314 L91.6547844,70.9650398 L85.8128469,65.1141313 C95.3219094,52.3444288 96.6383469,34.8467083 88.6559406,20.7047301 C88.1410031,19.7924363 86.9851281,19.4711721 86.0751281,19.9872547 C85.1646906,20.5031182 84.8437844,21.6604143 85.3587219,22.5727081 C92.9508781,36.0230699 91.2643156,52.8221613 81.4588469,64.5108296 C81.2357219,64.7762122 81.1068781,64.9247914 80.9773781,65.0729324 C80.6829406,65.4066877 80.5643781,65.5388311 80.4442844,65.6703171 C80.3650969,65.7566596 80.2850344,65.8425638 80.2051906,65.9282489 C80.0942844,66.0474629 79.9835969,66.1666768 79.8711594,66.284576 C79.7849719,66.374863 79.6968156,66.4638352 79.6095344,66.5532457 C79.5062844,66.6595303 79.4032531,66.7664722 79.2982531,66.8714419 C78.8495969,67.3209049 78.3917531,67.7559045 77.9260344,68.177098 C70.8595344,74.5335702 62.0218156,77.6817837 53.1808156,77.6806879 C43.7233781,77.6798114 34.2628781,74.0766563 27.0631594,66.8714419 C20.0867844,59.8906303 16.2450969,50.6090325 16.2450969,40.7366243 C16.2450969,30.8644352 20.0867844,21.5830567 27.0627219,14.6020259 C41.4636906,0.189624747 64.8964094,0.189624747 79.2980344,14.6020259 C80.0382844,15.3427304 81.2376906,15.3418539 81.9764094,14.6004919 C82.7157844,13.859349 82.7153469,12.657786 81.9750969,11.9173006 C66.0973469,-3.97256503 40.2629719,-3.97212674 24.3856594,11.9173006 C16.6937531,19.6151493 12.4574406,29.8500206 12.4572219,40.7364052 C12.4572219,45.9219944 13.4203781,50.9590045 15.2585344,55.645166 L1.89400312,55.645166 C0.847940625,55.645166 6.5625e-05,56.4945657 6.5625e-05,57.5425092 L6.5625e-05,68.7008506 C6.5625e-05,69.7487942 0.847940625,70.5981938 1.89400312,70.5981938 L25.4702219,70.5981938 C26.9238156,71.9505275 28.4520031,73.1781685 30.0425344,74.278049 L1.89400312,74.278049 C0.847940625,74.278049 6.5625e-05,75.1276678 6.5625e-05,76.1753922 L6.5625e-05,87.3335145 C6.5625e-05,88.3812389 0.847940625,89.2308577 1.89400312,89.2308577 L69.8607219,89.2308577 C70.9070031,89.2308577 71.7546594,88.3812389 71.7546594,87.3335145 L71.7546594,77.006603 C73.7748156,75.9720272 75.7258469,74.7577539 77.5845656,73.363783 L83.4230031,79.2116234 L82.5003156,80.135751 C82.1452844,80.4914206 81.9457844,80.9744126 81.9457844,81.4773466 C81.9457844,81.9804997 82.1452844,82.4632726 82.5003156,82.8189422 L98.6902219,99.0379612 C99.0454719,99.39385 99.5271594,99.5937088 100.029628,99.5937088 C100.532097,99.5937088 101.013566,99.39385 101.369034,99.0379612 L111.445534,88.9433416 C112.184691,88.2026371 112.184691,87.001074 111.445316,86.2601504 L95.2556281,70.0411314 Z" id="Fill-8" fill="#87D03F"></path>
            </g>
            <g id="browser" transform="translate(4.000000, 710.000000)" fill-rule="nonzero" fill="#87D03F">
                <rect id="Rectangle-path" x="7.29032258" y="40.0967742" width="3.64516129" height="3.64516129"></rect>
                <rect id="Rectangle-path" x="14.5806452" y="40.0967742" width="3.64516129" height="3.64516129"></rect>
                <rect id="Rectangle-path" x="21.8709677" y="40.0967742" width="3.64516129" height="3.64516129"></rect>
                <path d="M81.0045968,32.8064516 L98.4193548,13.4579355 L98.4193548,0 L14.5806452,0 L14.5806452,13.4579355 L31.9954032,32.8064516 L0,32.8064516 L0,113 L113,113 L113,32.8064516 L81.0045968,32.8064516 Z M18.2258065,3.64516129 L94.7741935,3.64516129 L94.7741935,10.9354839 L18.2258065,10.9354839 L18.2258065,3.64516129 Z M20.4949194,14.5806452 L92.5032581,14.5806452 L61.9677419,48.5098065 L61.9677419,72.9032258 L51.0322581,72.9032258 L51.0322581,48.5098065 L20.4949194,14.5806452 Z M65.6129032,76.5483871 L65.6129032,58.3225806 L102.064516,58.3225806 L102.064516,80.1935484 L10.9354839,80.1935484 L10.9354839,58.3225806 L47.3870968,58.3225806 L47.3870968,76.5483871 L65.6129032,76.5483871 Z M3.64516129,36.4516129 L35.2760484,36.4516129 L45.1179839,47.3870968 L3.64516129,47.3870968 L3.64516129,36.4516129 Z M109.354839,109.354839 L3.64516129,109.354839 L3.64516129,51.0322581 L47.3870968,51.0322581 L47.3870968,54.6774194 L7.29032258,54.6774194 L7.29032258,83.8387097 L105.709677,83.8387097 L105.709677,54.6774194 L65.6129032,54.6774194 L65.6129032,51.0322581 L109.354839,51.0322581 L109.354839,109.354839 Z M109.354839,47.3870968 L67.8820161,47.3870968 L77.7239516,36.4516129 L109.354839,36.4516129 L109.354839,47.3870968 Z" id="Shape"></path>
                <path d="M7.29032258,105.709677 L56.5,105.709677 L56.5,87.483871 L7.29032258,87.483871 L7.29032258,105.709677 Z M10.9354839,91.1290323 L52.8548387,91.1290323 L52.8548387,102.064516 L10.9354839,102.064516 L10.9354839,91.1290323 Z" id="Shape"></path>
                <rect id="Rectangle-path" x="60.1451613" y="87.483871" width="45.5645161" height="3.64516129"></rect>
                <rect id="Rectangle-path" x="60.1451613" y="94.7741935" width="45.5645161" height="3.64516129"></rect>
                <rect id="Rectangle-path" x="102.064516" y="102.064516" width="3.64516129" height="3.64516129"></rect>
                <rect id="Rectangle-path" x="60.1451613" y="102.064516" width="38.2741935" height="3.64516129"></rect>
            </g>
            <g id="bar-chart">
                <mask id="mask-4" fill="white">
                    <use xlink:href="#path-3"></use>
                </mask>
                <g id="Clip-2"></g>
                <path d="M116.225232,81.5103761 L108.064624,73.7037798 C107.209383,72.8849817 105.850756,72.9125688 105.029188,73.7657798 C104.208761,74.6181376 104.236441,75.9733211 105.091683,76.7909817 L109.349627,80.8639266 L97.7221098,80.8639266 L97.7221098,30.1843303 C97.7221098,29.0023486 96.7612829,28.0447615 95.5764439,28.0447615 L84.082478,28.0447615 C82.897639,28.0447615 81.9368122,29.0023486 81.9368122,30.1843303 L81.9368122,80.8639266 L76.8381805,80.8639266 L76.8381805,14.1377064 C76.8381805,12.9557248 75.8773537,11.9981376 74.6910878,11.9981376 L63.3746195,11.9981376 C62.1897805,11.9981376 61.2278122,12.9557248 61.2278122,14.1377064 L61.2278122,80.8639266 L56.1300366,80.8639266 L56.1300366,42.8869358 C56.1300366,41.7060917 55.1680683,40.7485046 53.9832293,40.7485046 L42.4895488,40.7485046 C41.3044244,40.7485046 40.3435976,41.7060917 40.3435976,42.8869358 L40.3435976,80.8639266 L35.2449659,80.8639266 L35.2449659,56.3929817 C35.2449659,55.2118532 34.284139,54.2542661 33.0978732,54.2542661 L21.7814049,54.2542661 C20.5965659,54.2542661 19.635739,55.2118532 19.635739,56.3929817 L19.635739,80.8639266 L12.3900146,80.8639266 L12.3900146,7.71530275 L16.7775146,12.4102385 C17.2009976,12.8624404 17.7740122,13.0913853 18.3493098,13.0913853 C18.8732415,13.0913853 19.3983146,12.9014037 19.8118098,12.5180275 C20.6790366,11.7125963 20.7281195,10.3582661 19.9199634,9.4939633 L11.8181415,0.82533945 C11.4123512,0.390770642 10.8439024,0.144192661 10.2474878,0.144192661 C9.65221463,0.144192661 9.08262439,0.390770642 8.67683415,0.82533945 L0.576439024,9.4939633 C-0.231717073,10.3582661 -0.184060976,11.7125963 0.68345122,12.5180275 C1.55067805,13.3234587 2.90930488,13.2756789 3.71746098,12.4102385 L8.09611463,7.72525688 L8.09611463,83.0034954 C8.09611463,84.1854771 9.05694146,85.1430642 10.2432073,85.1430642 L109.454641,85.1430642 L105.091683,89.3169725 C104.235585,90.134633 104.20762,91.4889633 105.029188,92.3421743 C105.450388,92.7798716 106.013415,92.9997156 106.577583,92.9997156 C107.112644,92.9997156 107.647705,92.802055 108.064624,92.4044587 L116.225232,84.597578 C116.646717,84.1942936 116.885283,83.6368624 116.885283,83.0546881 C116.885283,82.4713761 116.647859,81.9136606 116.225232,81.5103761 Z M23.9284976,80.8639266 L30.9510659,80.8639266 L30.9510659,58.5325505 L23.9284976,58.5325505 L23.9284976,80.8639266 Z M44.6363561,80.8639266 L51.8361366,80.8639266 L51.8361366,45.026789 L44.6363561,45.026789 L44.6363561,80.8639266 Z M65.5214268,80.8639266 L72.5442805,80.8639266 L72.5442805,16.2775596 L65.5214268,16.2775596 L65.5214268,80.8639266 Z M86.2295707,80.8639266 L93.4293512,80.8639266 L93.4293512,32.3241835 L86.2295707,32.3241835 L86.2295707,80.8639266 Z" id="Fill-1" fill="#87D03F" mask="url(#mask-4)"></path>
            </g>
            <g id="brainstorm" transform="translate(1.000000, 557.000000)" fill="#87D03F">
                <g id="Group-3">
                    <path d="M107.223487,19.3676318 L107.223487,6.42416736 L111.640357,9.75322176 L113.850483,6.79352301 L105.381555,0.415949791 L96.9140756,6.79546444 L99.1227521,9.75322176 L103.541071,6.42610879 L103.541071,19.3676318 C103.541071,24.4658075 99.4131513,28.6136569 94.3376891,28.6136569 L86.9747899,28.6136569 C81.149895,28.6136569 76.2237395,32.3110962 74.632584,37.8582259 L71.9957983,37.8582259 L71.9276681,41.5556653 L74.0889916,41.5556653 L74.0889916,47.3192636 C73.184937,47.190159 72.2692857,47.102795 71.327542,47.102795 C67.0469328,47.102795 62.9301261,48.5399331 59.5516387,51.184636 C57.1337395,48.6006025 53.7494538,47.102795 50.1598109,47.102795 C48.8986765,47.102795 47.6626681,47.3037322 46.4788445,47.66241 L46.4788445,36.0099916 C46.4788445,29.8915983 41.5246639,24.9147615 35.4335294,24.9147615 L33.5930462,24.9147615 L33.5930462,21.2178075 L29.9106303,21.2178075 L29.9106303,24.9147615 L24.3901471,24.9147615 C18.2990126,24.9147615 13.3462815,29.8915983 13.3462815,36.0099916 L13.3462815,39.7069456 C13.3462815,41.7468954 11.6947269,43.405841 9.66386555,43.405841 L5.98144958,43.405841 L9.29567227,38.9672636 L6.34964286,36.7491883 L0,45.2526192 L6.35157563,53.7594477 L9.29567227,51.539431 L5.98338235,47.102795 L9.66386555,47.102795 C13.7236555,47.102795 17.0267647,43.7849038 17.0267647,39.7069456 L17.0267647,36.0080502 C17.0267647,31.9296067 20.3298739,28.6122008 24.3901471,28.6122008 L35.4335294,28.6122008 C39.4952521,28.6122008 42.7964286,31.9296067 42.7964286,36.0080502 L42.7964286,49.4499749 C41.9962605,50.0129874 41.2506933,50.6575397 40.5882353,51.3972218 C39.2029202,50.9992301 37.7813655,50.799749 36.3544958,50.799749 C28.4576681,50.799749 21.9041176,56.6657573 20.8696008,64.3877657 C14.3015546,66.3388954 9.66386555,72.4684519 9.66386555,79.4585439 C9.66386555,82.7327531 10.6887185,85.9293054 12.5707563,88.5798326 C11.8609454,90.3979749 11.5043487,92.2995983 11.5043487,94.250728 C11.5043487,102.916753 18.5236975,109.968 27.1511134,109.968 C27.8478782,109.968 28.5311134,109.905389 29.2046849,109.816084 C29.3312815,109.799096 29.4598109,109.776285 29.5859244,109.757356 C30.2677101,109.649121 30.937416,109.506912 31.5887605,109.313741 C34.1197269,110.955699 37.0188866,111.816234 40.034979,111.816234 C43.410084,111.816234 46.6242857,110.748937 49.2915126,108.77354 C52.192605,112.982544 56.9278992,115.51513 62.1241597,115.51513 C66.9507773,115.51513 71.397605,113.329088 74.3532983,109.585054 C76.7731303,111.050343 79.509937,111.816234 82.3733403,111.816234 C91.0007563,111.816234 98.0181723,104.767414 98.0181723,96.1009038 C98.0181723,94.2298577 97.690084,92.4020084 97.0406723,90.6542427 C100.017143,87.7057071 101.701071,83.7000669 101.701071,79.4604854 C101.701071,78.5164686 101.608298,77.5913808 101.445945,76.6866778 L101.701071,76.6866778 L101.701071,72.9877824 L100.294496,72.9877824 C98.4506303,68.91759 94.9267017,65.7152134 90.5233613,64.3994142 C89.7135294,56.8215565 84.6361345,50.6386109 77.7714076,48.2176569 L77.7714076,41.5556653 C77.7714076,36.4574895 81.8993277,32.3110962 86.9747899,32.3110962 L94.3376891,32.3110962 C101.44063,32.3110962 107.223487,26.5038159 107.223487,19.3676318 Z M86.9428992,65.9389623 L86.9955672,67.3969707 L88.4205042,67.6833305 C91.7313445,68.3506946 94.4753992,70.3940418 96.1762395,73.1280502 L96.1762395,76.6866778 L97.6504622,76.6866778 C97.867416,77.5855565 98.0181723,78.5048201 98.0181723,79.4604854 C98.0181723,82.395431 96.9503151,85.1731213 95.0571639,87.3475146 C92.4107143,83.686477 88.2185294,81.4475314 83.4131723,81.1271967 L83.1715756,84.5872971 C89.2868697,84.9930544 94.0941597,89.4219247 94.314979,96.5183096 C94.0941597,102.951213 88.8302521,108.11928 82.3733403,108.11928 C79.6930672,108.11928 77.1505042,107.237874 75.0234874,105.569222 L74.2890336,104.993105 C72.0204412,102.916753 70.6293277,100.041021 70.4215546,96.9012552 L66.7468697,97.1478159 C67.0053782,101.060753 68.6926891,104.657238 71.4256303,107.336402 C69.1647689,110.166996 65.7877311,111.816234 62.1241597,111.816234 C57.5546008,111.816234 53.447458,109.249188 51.4107983,105.117841 L50.2786765,102.820167 L48.4647689,104.629088 C46.2092227,106.877255 43.2158403,108.11928 40.0369118,108.11928 C38.580084,108.11928 37.1701261,107.827096 35.8316807,107.317473 C40.0296639,104.494159 42.7964286,99.6939916 42.7964286,94.250728 C42.7964286,93.8580753 42.7456933,93.4751297 42.7171849,93.0863598 C45.6467857,92.5767364 48.3835924,91.2454059 50.6048319,89.1981757 L48.1173529,86.4714477 C46.4015336,88.050795 44.287563,89.0710126 42.0247689,89.4520167 C40.7921429,85.5900418 38.1268487,82.2910795 34.4313866,80.3346109 L32.7155672,83.6068787 C36.6642227,85.6982762 39.1159454,89.7742929 39.1159454,94.250728 C39.1159454,99.4396653 35.8186345,103.857372 31.2244328,105.537188 C30.5769538,105.7721 29.9202941,105.950226 29.2597689,106.071565 C29.2143487,106.079331 29.1708613,106.085155 29.1254412,106.092435 C28.4687815,106.204552 27.8101891,106.269105 27.1511134,106.269105 C20.5526261,106.269105 15.1867647,100.878745 15.1867647,94.250728 C15.1867647,92.4723849 15.5771849,90.7430628 16.3512605,89.1069289 L16.8552311,88.0415732 L16.1038655,87.1334728 C14.3242647,84.9794644 13.3462815,82.2571046 13.3462815,79.4585439 C13.3462815,73.7536736 17.3819118,68.7977071 22.9420168,67.6775063 L24.3539076,67.3950293 L24.420105,65.9520669 C24.6090336,61.9100251 26.754895,58.4232301 29.912563,56.391046 L29.912563,60.044318 L33.5930462,60.044318 L33.5930462,54.832569 C34.4801891,54.6219247 35.4035714,54.4986444 36.3544958,54.4986444 C37.7779832,54.4986444 39.1971218,54.7621925 40.5655252,55.2820084 L41.8831933,55.7804686 L42.7080042,54.6393975 C42.7340966,54.5995983 42.7684034,54.5670795 42.7964286,54.5272803 L42.7964286,63.7432134 L46.4788445,63.7432134 L46.4788445,51.598159 C47.6283613,51.0880502 48.8778992,50.799749 50.1598109,50.799749 C52.7076891,50.799749 55.1028782,51.8675314 56.8259454,53.692954 C53.7402731,57.2195481 51.5412605,61.7848033 51.5412605,66.5170209 C51.5412605,77.2215397 61.2051261,85.9312469 70.4085084,85.9312469 L70.4085084,82.2323515 C63.0456092,82.2323515 55.2217437,75.18159 55.2217437,66.5170209 C55.2217437,62.6569874 56.8790966,58.9333389 59.4119958,56.0687699 L60.4672899,55.1679498 C63.4041387,52.3509456 67.2788655,50.799749 71.2710084,50.799749 C72.2166176,50.799749 73.1926681,50.8948787 74.0889916,51.0560167 L74.0889916,58.1960837 C74.0889916,63.2942594 69.9610714,67.4406527 64.8856092,67.4406527 L63.0456092,67.4406527 L63.0456092,71.1395481 L64.8856092,71.1395481 C71.99,71.1395481 77.7714076,65.3303264 77.7714076,58.1960837 L77.7714076,52.1970879 C83.0184034,54.5748452 86.7182143,59.761841 86.9428992,65.9389623 Z" id="Fill-1"></path>
                </g>
                <polygon id="Fill-4" points="85.1343067 76.6866778 90.6572059 76.6866778 90.6572059 72.9877824 85.1343067 72.9877824"></polygon>
                <polygon id="Fill-5" points="94.3376891 41.5551799 99.8605882 41.5551799 99.8605882 37.8582259 94.3376891 37.8582259"></polygon>
                <path d="M65.782416,39.7977071 L67.637395,36.6030962 C66.3086134,35.8241004 65.1818067,34.7150628 64.3797059,33.3914979 L61.2370168,35.3178745 C62.3565756,37.1607699 63.9269538,38.7095397 65.782416,39.7977071 Z" id="Fill-6"></path>
                <path d="M59.3627101,28.6122008 C59.3627101,28.8053724 59.3665756,28.9970879 59.3762395,29.1902594 L63.0547899,28.7786778 L63.0456092,23.0665272 L59.3627101,23.0665272 L59.3627101,28.6122008 Z" id="Fill-7"></path>
                <polygon id="Fill-8" points="59.3627101 17.5189121 63.0451261 17.5189121 63.0451261 11.9712971 59.3627101 11.9712971"></polygon>
                <path d="M106.106345,71.8520502 L107.878697,75.0922845 C109.760252,74.0536234 111.370252,72.5441674 112.536681,70.7299079 L109.441345,68.7258745 C108.607353,70.0246862 107.452038,71.1050879 106.106345,71.8520502 Z" id="Fill-9"></path>
                <path d="M110.903971,63.7432134 C110.903971,63.9616234 110.896723,64.1776067 110.879811,64.3955314 L114.554496,64.6532552 C114.575273,64.3518494 114.58687,64.0485021 114.58687,63.7432134 L114.58687,58.1960837 L110.903971,58.1960837 L110.903971,63.7432134 Z" id="Fill-10"></path>
                <polygon id="Fill-11" points="83.2923739 41.5551799 88.8152731 41.5551799 88.8152731 37.8582259 83.2923739 37.8582259"></polygon>
                <path d="M114.141366,47.4347782 L110.586996,48.3977238 C110.798634,49.1806025 110.903971,49.9887197 110.903971,50.799749 L110.903971,52.65041 L114.58687,52.65041 L114.58687,50.799749 C114.58687,49.6625607 114.437563,48.5307113 114.141366,47.4347782 Z" id="Fill-12"></path>
                <path d="M111.003992,41.86241 C109.51334,40.2966527 107.646282,39.1230628 105.604307,38.4649205 L104.482815,41.9856904 C105.940126,42.456 107.276639,43.2976067 108.344979,44.4182929 L111.003992,41.86241 Z" id="Fill-13"></path>
                <polygon id="Fill-14" points="59.3627101 6.42416736 63.0456092 6.42416736 67.4639286 9.75322176 69.6721218 6.79546444 61.2051261 0.415949791 52.7381303 6.79546444 54.9463235 9.75322176"></polygon>
                <polygon id="Fill-15" points="29.912563 15.6706778 33.5930462 15.6706778 33.5930462 10.1230628 29.912563 10.1230628"></polygon>
                <polygon id="Fill-16" points="29.912563 48.9515146 33.5930462 48.9515146 33.5930462 43.4038996 29.912563 43.4038996"></polygon>
                <polygon id="Fill-17" points="29.912563 37.8587113 33.5930462 37.8587113 33.5930462 32.3110962 29.912563 32.3110962"></polygon>
                <polygon id="Fill-18" points="29.912563 71.1395481 33.5930462 71.1395481 33.5930462 65.5919331 29.912563 65.5919331"></polygon>
                <polygon id="Fill-19" points="31.7530462 5.03799163 38.0118487 9.75322176 40.220042 6.79546444 31.7530462 0.415949791 23.2855672 6.79546444 25.4942437 9.75322176"></polygon>
            </g>
            <g id="Page-1" transform="translate(12.000000, 272.000000)">
                <g id="Group-3" transform="translate(4.114233, 0.000000)">
                    <mask id="mask-6" fill="white">
                        <use xlink:href="#path-5"></use>
                    </mask>
                    <g id="Clip-2"></g>
                    <path d="M48.5083843,57.6531615 C46.5588876,55.4093139 44.1620223,53.5884369 41.4637353,52.3418549 C43.2237607,51.5798139 44.8846115,50.5831986 46.3867395,49.3637162 C50.0912812,46.3558764 52.7007875,42.1469818 53.7354087,37.5122982 C53.95303,36.5367123 53.3397928,35.5691479 52.3653692,35.351267 C51.3911622,35.1333861 50.4247506,35.7473549 50.2071294,36.7229408 C48.4349778,44.6622592 41.2621378,50.4314408 33.1302486,50.4756674 C33.0765471,50.475017 33.0232786,50.4732826 32.969577,50.4732826 L32.9682778,50.4732826 L32.9676282,50.4732826 L32.9648132,50.4732826 C32.9438089,50.4732826 32.9230212,50.4741498 32.902017,50.4741498 C23.2632359,50.4010893 15.4431622,42.5304955 15.4431622,32.8626557 C15.4431622,23.1501557 23.3357763,15.2479096 33.0369205,15.2479096 C40.1237946,15.2479096 46.4876465,19.4711127 49.2491628,26.0068881 C49.6378495,26.9274076 50.6986719,27.3573158 51.6178781,26.9683822 C52.5370843,26.5792318 52.9677795,25.5173607 52.5784432,24.5966244 C49.2502455,16.7188764 41.5795834,11.6284857 33.0369205,11.6284857 C21.3421058,11.6284857 11.8278344,21.1543236 11.8278344,32.8626557 C11.8278344,41.5440697 17.0591895,49.0242123 24.5308527,52.3123705 C21.8293175,53.5487631 19.4272553,55.3594506 17.4712624,57.5946264 C9.28047472,52.4092787 3.8286833,43.2624018 3.8286833,32.8626557 C3.82846676,16.7379545 16.9309987,3.61957559 33.0364874,3.61957559 C49.1421927,3.61957559 62.2449412,16.7379545 62.2449412,32.8626557 C62.2451577,43.3020756 56.7513578,52.4782201 48.5083843,57.6531615 M31.8279857,64.6288178 L31.8279857,62.5586244 C31.8279857,62.0109955 32.2729725,61.5654779 32.8199489,61.5654779 L33.1168232,61.5654779 C33.6637997,61.5654779 34.1087864,62.0112123 34.1087864,62.5586244 L34.1087864,64.6288178 C34.1087864,65.1764467 33.6635831,65.6219643 33.1168232,65.6219643 L32.8199489,65.6219643 C32.2727559,65.6219643 31.8279857,65.1764467 31.8279857,64.6288178 M44.1609396,77.3064486 C41.0445166,80.0677904 37.0688686,81.5884037 32.9656793,81.5884037 C25.0206629,81.5884037 18.02192,75.8289779 16.177228,67.8406635 C17.8662288,60.5543373 23.8385789,54.9848256 31.1610469,54.1911322 L31.1610469,58.2604096 C29.4389157,58.9290111 28.2128744,60.6011654 28.2128744,62.5586244 L28.2128744,64.6288178 C28.2128744,66.5862768 29.4389157,68.2584311 31.1610469,68.9272494 L31.1610469,72.8525736 C31.1610469,73.8524408 31.970035,74.6623939 32.9687109,74.6623939 C33.9671702,74.6623939 34.7761583,73.8524408 34.7761583,72.8525736 L34.7761583,68.9272494 C36.4982895,68.2584311 37.7243308,66.5862768 37.7243308,64.6288178 L37.7243308,62.5586244 C37.7243308,60.6011654 36.4982895,58.9290111 34.7761583,58.2604096 L34.7761583,54.1922162 C42.0979767,54.9891615 48.0685945,60.5612748 49.7545638,67.8491186 C48.9070318,71.5017123 46.9330663,74.8484057 44.1609396,77.3064486 M33.0364874,-6.50390625e-05 C14.9379778,-6.50390625e-05 0.213138908,14.7423393 0.213138908,32.8626557 C0.213138908,44.4547846 6.24005675,54.6626654 15.3203849,60.5144467 C14.0360946,62.6037182 13.0902542,64.9355854 12.5623332,67.4267982 C12.2394742,68.981015 12.0788026,70.4938236 12.0788026,72.0445717 L12.0788026,89.4284291 C12.0788026,101.32299 21.4479931,110.999935 32.9648132,110.999935 C37.9506136,110.999935 42.7774747,109.156078 46.5565057,105.808083 C50.2796698,102.509953 52.7696467,97.955267 53.5682409,92.9832475 C53.7267472,91.9963881 53.0561272,91.0678471 52.0704437,90.908935 C51.0834609,90.75089 50.157109,91.4218764 49.9986027,92.4085189 C48.6051771,101.083863 41.4414318,107.380511 32.9648132,107.380511 C23.4416637,107.380511 15.6941304,99.3275912 15.6941304,89.4284291 L15.6941304,75.7559174 C16.8190483,77.4651439 18.1802097,79.0132904 19.7447008,80.3359682 C23.460286,83.4777885 28.1554917,85.2078275 32.9656793,85.2078275 C37.9521294,85.2078275 42.779207,83.3641869 46.5575884,80.015976 C47.9655222,78.7676596 49.1993589,77.3266107 50.2357125,75.7513646 L50.2357125,81.195351 C50.2357125,82.1950014 51.0447005,83.0049545 52.0431598,83.0049545 C53.0418357,83.0049545 53.8508238,82.1950014 53.8508238,81.195351 L53.8508238,72.0443549 C53.8508238,70.5001107 53.6916679,68.9935893 53.3915455,67.5399662 C52.8419706,64.9535795 51.9106382,62.6481615 50.6482184,60.5784018 C59.7859293,54.7383275 65.8604856,44.4990111 65.8604856,32.8626557 C65.8604856,14.7423393 51.1358633,-6.50390625e-05 33.0364874,-6.50390625e-05 Z" id="Fill-1" fill="#87D03F" mask="url(#mask-6)"></path>
                </g>
                <path d="M7.36692343,75.8640123 L1.80772889,75.8640123 C0.809053035,75.8640123 6.4961569e-05,76.6741822 6.4961569e-05,77.6740494 C6.4961569e-05,78.6736998 0.809053035,79.4838697 1.80772889,79.4838697 L7.36692343,79.4838697 C8.36538275,79.4838697 9.17458736,78.6732662 9.17458736,77.6740494 C9.17458736,76.6741822 8.36538275,75.8640123 7.36692343,75.8640123 Z" id="Fill-4" fill="#87D03F"></path>
                <path d="M6.6797383,66.1524879 C5.97382258,65.4455133 4.82919973,65.4452965 4.12350056,66.1520543 C3.4173683,66.8590289 3.4173683,68.0048004 4.12328402,68.7115582 L8.05454164,72.6477223 C8.4074995,73.001318 8.87024241,73.1780074 9.33276878,73.1780074 C9.79551169,73.1780074 10.2580381,73.001318 10.6109959,72.6481559 C11.3171282,71.9411812 11.3171282,70.7954098 10.6112125,70.088652 L6.6797383,66.1524879 Z" id="Fill-6" fill="#87D03F"></path>
                <path d="M4.12300252,86.6361287 C3.4170868,87.3431033 3.4170868,88.4888748 4.1234356,89.1954158 C4.47639345,89.5490115 4.93891983,89.7252674 5.4014462,89.7252674 C5.86397257,89.7252674 6.32693202,89.5487947 6.67967334,89.195199 L10.610931,85.2588182 C11.3168467,84.5520604 11.3168467,83.4060721 10.6107144,82.6995311 C9.90436562,81.9925564 8.75974278,81.9927732 8.05426014,82.6997479 L4.12300252,86.6361287 Z" id="Fill-8" fill="#87D03F"></path>
                <g id="Group-12" transform="translate(64.961569, 75.662109)">
                    <mask id="mask-8" fill="white">
                        <use xlink:href="#path-7"></use>
                    </mask>
                    <g id="Clip-11"></g>
                    <path d="M7.38888044,0.201989648 L1.82925282,0.201989648 C0.830793506,0.201989648 0.0218054333,1.01194277 0.0218054333,2.01202676 C0.0218054333,3.01167715 0.830793506,3.82163027 1.82925282,3.82163027 L7.38888044,3.82163027 C8.38733976,3.82163027 9.19654437,3.01167715 9.19654437,2.01202676 C9.19654437,1.01194277 8.38733976,0.201989648 7.38888044,0.201989648" id="Fill-10" fill="#87D03F" mask="url(#mask-8)"></path>
                </g>
                <path d="M66.1033985,82.6997479 C65.3972663,81.99299 64.2526434,81.9927732 63.5471608,82.6995311 C62.8410285,83.4065057 62.8410285,84.5522771 63.5469443,85.2588182 L67.4784184,89.195199 C67.8313763,89.5487947 68.2939027,89.7252674 68.7568621,89.7252674 C69.2193885,89.7252674 69.6819148,89.5487947 70.0348727,89.1954158 C70.741005,88.488658 70.741005,87.3426697 70.0350892,86.6361287 L66.1033985,82.6997479 Z" id="Fill-13" fill="#87D03F"></path>
                <path d="M63.5468793,70.088652 C62.840747,70.7956266 62.840747,71.941398 63.5470958,72.6481559 C63.8998372,73.001318 64.3625801,73.1780074 64.8251064,73.1780074 C65.2876328,73.1780074 65.7503757,73.001318 66.1033336,72.6479391 L70.0350243,68.7115582 C70.7407235,68.0045836 70.7407235,66.8588121 70.0348077,66.1520543 C69.3291086,65.4455133 68.1844857,65.4452965 67.4781369,66.1524879 L63.5468793,70.088652 Z" id="Fill-15" fill="#87D03F"></path>
                <path d="M42.1562256,38.1289336 C42.1562256,39.6276504 40.9895158,40.9171582 39.3295312,41.4697734 L39.3295312,34.7909121 C40.9884331,35.3437441 42.1562256,36.6304336 42.1562256,38.1289336 L42.1562256,38.1289336 Z M35.7142033,30.665918 C34.0555179,30.1128691 32.8875089,28.8261797 32.8875089,27.3278965 C32.8875089,25.8289629 34.0544352,24.5394551 35.7142033,23.9868398 L35.7142033,30.665918 Z M42.1562256,27.3278965 C42.1562256,28.3277637 42.9652136,29.1377168 43.9638895,29.1377168 C44.9623488,29.1377168 45.7713369,28.3277637 45.7713369,27.3278965 C45.7713369,23.8769238 43.0115529,20.9833359 39.3295312,20.2570664 L39.3295312,19.716375 C39.3295312,18.7167246 38.5205431,17.9067715 37.5220838,17.9067715 C36.5234079,17.9067715 35.7142033,18.7167246 35.7142033,19.716375 L35.7142033,20.2570664 C32.0323981,20.9833359 29.272181,23.8769238 29.272181,27.3278965 C29.272181,30.7788691 32.0323981,33.6722402 35.7142033,34.3985098 L35.7142033,41.4697734 C34.0544352,40.9171582 32.8875089,39.6276504 32.8875089,38.1289336 C32.8875089,37.1292832 32.0783043,36.3191133 31.079845,36.3191133 C30.0813857,36.3191133 29.272181,37.1292832 29.272181,38.1289336 C29.272181,41.5799062 32.0323981,44.4732773 35.7142033,45.1997637 L35.7142033,46.0186055 C35.7142033,47.0182559 36.5234079,47.8284258 37.5220838,47.8284258 C38.5205431,47.8284258 39.3295312,47.0182559 39.3295312,46.0186055 L39.3295312,45.1993301 C43.0113364,44.4730605 45.7713369,41.5796895 45.7713369,38.1287168 C45.7713369,34.6777441 43.0115529,31.7841562 39.3295312,31.0578867 L39.3295312,23.9868398 C40.9895158,24.5396719 42.1562256,25.8289629 42.1562256,27.3278965 L42.1562256,27.3278965 Z" id="Fill-17" fill="#87D03F"></path>
            </g>
            <g id="Page-1" transform="translate(4.000000, 413.000000)" fill="#87D03F">
                <g id="Group-3" transform="translate(0.000000, 0.082314)">
                    <path d="M86.5942356,9.21345774 L84.7704375,8.30585105 L86.5942356,6.94573389 L86.5942356,9.21345774 Z M78.9022644,29.8996502 L74.2590433,29.8996502 L82.4750048,10.8192234 L86.129524,12.632713 L78.9022644,29.8996502 Z M82.9349567,33.1840142 C83.175101,34.8255498 83.2949567,36.4903573 83.2949567,38.1099138 L83.2984183,44.1097715 C83.3083702,57.2623113 76.7928894,69.5783531 65.890774,77.053395 L65.1660144,77.5464159 L65.1660144,98.8536251 L32.1983221,98.8536251 L32.1983221,84.0780812 L15.7153413,84.0780812 L15.7153413,64.052123 L5.03173558,61.6240812 L14.6812067,44.4881565 L14.5881779,43.9024787 C13.9746202,40.3099766 13.9408702,36.4666544 14.4730817,33.1840142 L82.9349567,33.1840142 Z M23.9568317,16.7975331 C23.0477452,16.7975331 22.3091394,16.0601565 22.3091394,15.1559975 C22.3091394,14.2488218 23.0477452,13.5127381 23.9568317,13.5127381 C24.8680817,13.5127381 25.6049567,14.2488218 25.6049567,15.1559975 C25.6049567,16.0618803 24.8680817,16.7975331 23.9568317,16.7975331 L23.9568317,16.7975331 Z M12.419524,15.1559975 C12.419524,8.81955816 17.5966875,3.66309372 23.9568317,3.66309372 C30.3187067,3.66309372 35.4958702,8.81955816 35.4958702,15.1559975 C35.4958702,19.2333322 33.2835144,23.0447632 29.7254856,25.0982987 L28.9025048,25.5714954 L28.9025048,29.8996502 L25.6049567,29.8996502 L25.6049567,19.7772067 C27.5200529,19.0971481 28.9025048,17.290554 28.9025048,15.1542736 C28.9025048,12.4387799 26.683226,10.2283741 23.9568317,10.2283741 C21.2304375,10.2283741 19.0115913,12.4387799 19.0115913,15.1542736 C19.0115913,17.290554 20.395774,19.0971481 22.3091394,19.7772067 L22.3091394,29.8996502 L19.0115913,29.8996502 L19.0115913,25.5714954 L18.1899087,25.0965749 C14.630149,23.0430393 12.419524,19.2333322 12.419524,15.1559975 L12.419524,15.1559975 Z M42.946399,15.7433992 L44.9458702,20.1254243 C41.516351,20.3542653 38.7916875,23.1757757 38.7916875,26.6471774 L38.7916875,29.8996502 L32.1983221,29.8996502 L32.1983221,27.4267883 C35.497601,25.2245707 37.7354856,21.7889389 38.4909663,17.9607004 L42.946399,15.7433992 Z M49.4199087,29.8996502 L42.0892356,29.8996502 L42.0892356,26.6489013 C42.0892356,24.8375665 43.5681779,23.3343699 45.3854856,23.3343699 L46.4230817,23.3343699 L46.4230817,23.332646 L49.4199087,29.8996502 Z M44.8074087,5.90539079 L51.360101,8.70147448 L49.8136587,9.45738243 L54.7286106,20.0495749 L48.5458702,20.0495749 L44.5283221,11.2674243 L43.0528413,12.0095414 L44.8074087,5.90539079 Z M59.2922163,29.8996502 L53.0402452,29.8996502 L50.0434183,23.332646 L56.2499567,23.332646 L59.2922163,29.8996502 Z M65.1660144,6.94573389 L68.4635625,6.94573389 L68.4635625,3.66309372 L65.1660144,3.66309372 L65.1660144,6.94573389 Z M89.8917837,0.378729707 L80.3102452,7.52322343 L70.6724567,29.8996502 L62.9246683,29.8996502 L59.8824087,23.332646 L61.8697644,23.332646 C65.5056779,23.332646 68.4635625,20.4184787 68.4635625,16.7975331 L68.4635625,10.1982067 L71.7593798,10.1982067 L71.7593798,0.348562343 L61.8697644,0.348562343 L61.8697644,10.1982067 L65.1660144,10.1982067 L65.1660144,16.7975331 C65.1660144,18.6071439 63.6883702,20.0495749 61.8697644,20.0495749 L58.3593317,20.0495749 L54.1475048,10.9709222 L59.1944279,8.46616904 L42.6673125,1.4156251 L38.7817356,14.9590477 C38.677024,6.90048285 32.0715433,0.378729707 23.9568317,0.378729707 C15.776351,0.378729707 9.12197596,7.00649958 9.12197596,15.1542736 C9.12197596,20.0767255 11.625101,24.6962109 15.7153413,27.4267883 L15.7153413,29.8996502 L11.7233221,29.8996502 L11.4663029,31.2464075 C10.6649567,35.3858008 10.5909663,39.6385372 11.2447644,43.8804996 L-4.32692308e-05,63.8448301 L12.4177933,66.6710812 L12.4177933,87.3624452 L28.9025048,87.3624452 L28.9025048,102.13842 L68.4635625,102.13842 L68.4635625,79.2603531 C80.0008702,71.1289556 86.590774,58.0587297 86.5808221,44.1127883 L86.5842837,38.1232736 C86.5842837,35.8658929 86.3761587,33.5460226 85.953851,31.2614912 L85.7102452,29.8996502 L82.4737067,29.8996502 L89.8917837,12.2000268 L89.8917837,0.378729707 Z" id="Fill-1"></path>
                </g>
                <path d="M27.2543365,43.1160155 C24.528375,43.1160155 22.3090962,41.4749109 22.3090962,38.1922707 L19.0115481,38.1922707 C19.0115481,43.1160155 22.7093365,46.4008105 27.2543365,46.4008105 C31.7993365,46.4008105 35.4958269,43.1160155 35.4958269,38.1922707 L32.1982788,38.1922707 C32.1982788,41.4749109 29.9807308,43.1160155 27.2543365,43.1160155" id="Fill-4"></path>
            </g>
        </g>
    </g>
</svg>